<svg xmlns="http://www.w3.org/2000/svg" width="64" height="64" viewBox="0 0 64 64" shape-rendering="crispEdges"><rect x="31" y="3" width="2" height="1" fill="#71584d"/><rect x="33" y="3" width="1" height="1" fill="#0a0812"/><rect x="27" y="4" width="5" height="1" fill="#71584d"/><rect x="32" y="4" width="1" height="1" fill="#ded6c5"/><rect x="33" y="4" width="1" height="1" fill="#0a0812"/><rect x="34" y="4" width="3" height="1" fill="#71584d"/><rect x="37" y="4" width="1" height="1" fill="#0a0812"/><rect x="23" y="5" width="5" height="1" fill="#71584d"/><rect x="28" y="5" width="2" height="1" fill="#ded6c5"/><rect x="30" y="5" width="1" height="1" fill="#2b1f20"/><rect x="31" y="5" width="6" height="1" fill="#ded6c5"/><rect x="37" y="5" width="1" height="1" fill="#0a0812"/><rect x="38" y="5" width="3" height="1" fill="#71584d"/><rect x="41" y="5" width="1" height="1" fill="#0a0812"/><rect x="19" y="6" width="5" height="1" fill="#71584d"/><rect x="24" y="6" width="6" height="1" fill="#ded6c5"/><rect x="30" y="6" width="1" height="1" fill="#2b1f20"/><rect x="31" y="6" width="10" height="1" fill="#ded6c5"/><rect x="41" y="6" width="1" height="1" fill="#0a0812"/><rect x="42" y="6" width="3" height="1" fill="#71584d"/><rect x="45" y="6" width="1" height="1" fill="#0a0812"/><rect x="18" y="7" width="2" height="1" fill="#71584d"/><rect x="20" y="7" width="9" height="1" fill="#ded6c5"/><rect x="29" y="7" width="1" height="1" fill="#2b1f20"/><rect x="30" y="7" width="14" height="1" fill="#ded6c5"/><rect x="44" y="7" width="1" height="1" fill="#573f39"/><rect x="45" y="7" width="2" height="1" fill="#0a0812"/><rect x="17" y="8" width="2" height="1" fill="#71584d"/><rect x="19" y="8" width="10" height="1" fill="#ded6c5"/><rect x="29" y="8" width="1" height="1" fill="#2b1f20"/><rect x="30" y="8" width="14" height="1" fill="#ded6c5"/><rect x="44" y="8" width="2" height="1" fill="#573f39"/><rect x="46" y="8" width="2" height="1" fill="#0a0812"/><rect x="16" y="9" width="2" height="1" fill="#71584d"/><rect x="18" y="9" width="3" height="1" fill="#ded6c5"/><rect x="21" y="9" width="7" height="1" fill="#fcfaf2"/><rect x="28" y="9" width="1" height="1" fill="#ded6c5"/><rect x="29" y="9" width="1" height="1" fill="#2b1f20"/><rect x="30" y="9" width="7" height="1" fill="#ded6c5"/><rect x="37" y="9" width="1" height="1" fill="#b8a993"/><rect x="38" y="9" width="7" height="1" fill="#ded6c5"/><rect x="45" y="9" width="2" height="1" fill="#573f39"/><rect x="47" y="9" width="2" height="1" fill="#0a0812"/><rect x="15" y="10" width="2" height="1" fill="#71584d"/><rect x="17" y="10" width="2" height="1" fill="#ded6c5"/><rect x="19" y="10" width="9" height="1" fill="#fcfaf2"/><rect x="28" y="10" width="1" height="1" fill="#ded6c5"/><rect x="29" y="10" width="1" height="1" fill="#2b1f20"/><rect x="30" y="10" width="3" height="1" fill="#ded6c5"/><rect x="33" y="10" width="9" height="1" fill="#b8a993"/><rect x="42" y="10" width="3" height="1" fill="#ded6c5"/><rect x="45" y="10" width="3" height="1" fill="#573f39"/><rect x="48" y="10" width="2" height="1" fill="#0a0812"/><rect x="14" y="11" width="2" height="1" fill="#71584d"/><rect x="16" y="11" width="1" height="1" fill="#ded6c5"/><rect x="17" y="11" width="10" height="1" fill="#fcfaf2"/><rect x="27" y="11" width="1" height="1" fill="#ded6c5"/><rect x="28" y="11" width="1" height="1" fill="#2b1f20"/><rect x="29" y="11" width="3" height="1" fill="#fcfaf2"/><rect x="32" y="11" width="6" height="1" fill="#b8a993"/><rect x="38" y="11" width="5" height="1" fill="#ded6c5"/><rect x="43" y="11" width="2" height="1" fill="#b8a993"/><rect x="45" y="11" width="3" height="1" fill="#573f39"/><rect x="48" y="11" width="1" height="1" fill="#382728"/><rect x="49" y="11" width="2" height="1" fill="#0a0812"/><rect x="11" y="12" width="2" height="1" fill="#260547"/><rect x="13" y="12" width="2" height="1" fill="#71584d"/><rect x="15" y="12" width="2" height="1" fill="#ded6c5"/><rect x="17" y="12" width="10" height="1" fill="#fcfaf2"/><rect x="27" y="12" width="1" height="1" fill="#ded6c5"/><rect x="28" y="12" width="1" height="1" fill="#2b1f20"/><rect x="29" y="12" width="3" height="1" fill="#fcfaf2"/><rect x="32" y="12" width="4" height="1" fill="#b8a993"/><rect x="36" y="12" width="9" height="1" fill="#ded6c5"/><rect x="45" y="12" width="3" height="1" fill="#573f39"/><rect x="48" y="12" width="2" height="1" fill="#382728"/><rect x="50" y="12" width="4" height="1" fill="#0a0812"/><rect x="8" y="13" width="4" height="1" fill="#260547"/><rect x="12" y="13" width="2" height="1" fill="#71584d"/><rect x="14" y="13" width="2" height="1" fill="#ded6c5"/><rect x="16" y="13" width="12" height="1" fill="#fcfaf2"/><rect x="28" y="13" width="1" height="1" fill="#ded6c5"/><rect x="29" y="13" width="1" height="1" fill="#2b1f20"/><rect x="30" y="13" width="3" height="1" fill="#fcfaf2"/><rect x="33" y="13" width="2" height="1" fill="#b8a993"/><rect x="35" y="13" width="11" height="1" fill="#ded6c5"/><rect x="46" y="13" width="3" height="1" fill="#573f39"/><rect x="49" y="13" width="2" height="1" fill="#382728"/><rect x="51" y="13" width="3" height="1" fill="#0a0812"/><rect x="54" y="13" width="2" height="1" fill="#260547"/><rect x="56" y="13" width="1" height="1" fill="#0a0812"/><rect x="4" y="14" width="5" height="1" fill="#260547"/><rect x="9" y="14" width="2" height="1" fill="#c85dde"/><rect x="11" y="14" width="2" height="1" fill="#71584d"/><rect x="13" y="14" width="3" height="1" fill="#ded6c5"/><rect x="16" y="14" width="12" height="1" fill="#fcfaf2"/><rect x="28" y="14" width="1" height="1" fill="#ded6c5"/><rect x="29" y="14" width="1" height="1" fill="#2b1f20"/><rect x="30" y="14" width="3" height="1" fill="#fcfaf2"/><rect x="33" y="14" width="1" height="1" fill="#b8a993"/><rect x="34" y="14" width="13" height="1" fill="#ded6c5"/><rect x="47" y="14" width="2" height="1" fill="#573f39"/><rect x="49" y="14" width="2" height="1" fill="#382728"/><rect x="51" y="14" width="1" height="1" fill="#8a7160"/><rect x="52" y="14" width="2" height="1" fill="#0a0812"/><rect x="54" y="14" width="2" height="1" fill="#c85dde"/><rect x="56" y="14" width="3" height="1" fill="#0a0812"/><rect x="1" y="15" width="4" height="1" fill="#260547"/><rect x="5" y="15" width="6" height="1" fill="#c85dde"/><rect x="11" y="15" width="1" height="1" fill="#71584d"/><rect x="12" y="15" width="4" height="1" fill="#ded6c5"/><rect x="16" y="15" width="13" height="1" fill="#fcfaf2"/><rect x="29" y="15" width="1" height="1" fill="#ded6c5"/><rect x="30" y="15" width="1" height="1" fill="#2b1f20"/><rect x="31" y="15" width="2" height="1" fill="#fcfaf2"/><rect x="33" y="15" width="1" height="1" fill="#b8a993"/><rect x="34" y="15" width="13" height="1" fill="#ded6c5"/><rect x="47" y="15" width="2" height="1" fill="#573f39"/><rect x="49" y="15" width="2" height="1" fill="#382728"/><rect x="51" y="15" width="2" height="1" fill="#8a7160"/><rect x="53" y="15" width="1" height="1" fill="#0a0812"/><rect x="54" y="15" width="4" height="1" fill="#c85dde"/><rect x="58" y="15" width="1" height="1" fill="#0a0812"/><rect x="59" y="15" width="2" height="1" fill="#260547"/><rect x="61" y="15" width="1" height="1" fill="#0a0812"/><rect x="1" y="16" width="1" height="1" fill="#260547"/><rect x="2" y="16" width="7" height="1" fill="#c85dde"/><rect x="9" y="16" width="2" height="1" fill="#731ba6"/><rect x="11" y="16" width="1" height="1" fill="#71584d"/><rect x="12" y="16" width="5" height="1" fill="#ded6c5"/><rect x="17" y="16" width="13" height="1" fill="#fcfaf2"/><rect x="30" y="16" width="1" height="1" fill="#ded6c5"/><rect x="31" y="16" width="1" height="1" fill="#2b1f20"/><rect x="32" y="16" width="2" height="1" fill="#b8a993"/><rect x="34" y="16" width="13" height="1" fill="#ded6c5"/><rect x="47" y="16" width="2" height="1" fill="#573f39"/><rect x="49" y="16" width="3" height="1" fill="#382728"/><rect x="52" y="16" width="1" height="1" fill="#8a7160"/><rect x="53" y="16" width="1" height="1" fill="#0a0812"/><rect x="54" y="16" width="2" height="1" fill="#731ba6"/><rect x="56" y="16" width="5" height="1" fill="#c85dde"/><rect x="61" y="16" width="3" height="1" fill="#0a0812"/><rect x="1" y="17" width="1" height="1" fill="#260547"/><rect x="2" y="17" width="3" height="1" fill="#c85dde"/><rect x="5" y="17" width="5" height="1" fill="#731ba6"/><rect x="10" y="17" width="2" height="1" fill="#71584d"/><rect x="12" y="17" width="5" height="1" fill="#ded6c5"/><rect x="17" y="17" width="13" height="1" fill="#fcfaf2"/><rect x="30" y="17" width="1" height="1" fill="#ded6c5"/><rect x="31" y="17" width="1" height="1" fill="#2b1f20"/><rect x="32" y="17" width="3" height="1" fill="#b8a993"/><rect x="35" y="17" width="11" height="1" fill="#ded6c5"/><rect x="46" y="17" width="3" height="1" fill="#573f39"/><rect x="49" y="17" width="3" height="1" fill="#382728"/><rect x="52" y="17" width="1" height="1" fill="#8a7160"/><rect x="53" y="17" width="2" height="1" fill="#0a0812"/><rect x="55" y="17" width="3" height="1" fill="#731ba6"/><rect x="58" y="17" width="5" height="1" fill="#c85dde"/><rect x="63" y="17" width="1" height="1" fill="#0a0812"/><rect x="1" y="18" width="1" height="1" fill="#260547"/><rect x="2" y="18" width="8" height="1" fill="#731ba6"/><rect x="10" y="18" width="1" height="1" fill="#71584d"/><rect x="11" y="18" width="8" height="1" fill="#ded6c5"/><rect x="19" y="18" width="11" height="1" fill="#fcfaf2"/><rect x="30" y="18" width="1" height="1" fill="#b8a993"/><rect x="31" y="18" width="1" height="1" fill="#ded6c5"/><rect x="32" y="18" width="1" height="1" fill="#2b1f20"/><rect x="33" y="18" width="3" height="1" fill="#b8a993"/><rect x="36" y="18" width="9" height="1" fill="#ded6c5"/><rect x="45" y="18" width="1" height="1" fill="#b8a993"/><rect x="46" y="18" width="3" height="1" fill="#573f39"/><rect x="49" y="18" width="3" height="1" fill="#382728"/><rect x="52" y="18" width="2" height="1" fill="#8a7160"/><rect x="54" y="18" width="1" height="1" fill="#0a0812"/><rect x="55" y="18" width="6" height="1" fill="#731ba6"/><rect x="61" y="18" width="2" height="1" fill="#c85dde"/><rect x="63" y="18" width="1" height="1" fill="#0a0812"/><rect x="1" y="19" width="1" height="1" fill="#260547"/><rect x="2" y="19" width="4" height="1" fill="#731ba6"/><rect x="6" y="19" width="4" height="1" fill="#14032b"/><rect x="10" y="19" width="1" height="1" fill="#71584d"/><rect x="11" y="19" width="7" height="1" fill="#ded6c5"/><rect x="18" y="19" width="3" height="1" fill="#b8a993"/><rect x="21" y="19" width="7" height="1" fill="#fcfaf2"/><rect x="28" y="19" width="3" height="1" fill="#b8a993"/><rect x="31" y="19" width="1" height="1" fill="#ded6c5"/><rect x="32" y="19" width="1" height="1" fill="#2b1f20"/><rect x="33" y="19" width="5" height="1" fill="#b8a993"/><rect x="38" y="19" width="5" height="1" fill="#ded6c5"/><rect x="43" y="19" width="3" height="1" fill="#b8a993"/><rect x="46" y="19" width="4" height="1" fill="#573f39"/><rect x="50" y="19" width="2" height="1" fill="#382728"/><rect x="52" y="19" width="2" height="1" fill="#8a7160"/><rect x="54" y="19" width="1" height="1" fill="#0a0812"/><rect x="55" y="19" width="2" height="1" fill="#14032b"/><rect x="57" y="19" width="6" height="1" fill="#731ba6"/><rect x="63" y="19" width="1" height="1" fill="#0a0812"/><rect x="1" y="20" width="1" height="1" fill="#260547"/><rect x="2" y="20" width="4" height="1" fill="#14032b"/><rect x="6" y="20" width="4" height="1" fill="#09041a"/><rect x="10" y="20" width="1" height="1" fill="#71584d"/><rect x="11" y="20" width="6" height="1" fill="#ded6c5"/><rect x="17" y="20" width="1" height="1" fill="#b8a993"/><rect x="18" y="20" width="10" height="1" fill="#573f39"/><rect x="28" y="20" width="2" height="1" fill="#b8a993"/><rect x="30" y="20" width="1" height="1" fill="#ded6c5"/><rect x="31" y="20" width="1" height="1" fill="#2b1f20"/><rect x="32" y="20" width="5" height="1" fill="#b8a993"/><rect x="37" y="20" width="13" height="1" fill="#573f39"/><rect x="50" y="20" width="2" height="1" fill="#382728"/><rect x="52" y="20" width="2" height="1" fill="#8a7160"/><rect x="54" y="20" width="1" height="1" fill="#0a0812"/><rect x="55" y="20" width="2" height="1" fill="#09041a"/><rect x="57" y="20" width="3" height="1" fill="#14032b"/><rect x="60" y="20" width="3" height="1" fill="#731ba6"/><rect x="63" y="20" width="1" height="1" fill="#0a0812"/><rect x="1" y="21" width="1" height="1" fill="#260547"/><rect x="2" y="21" width="4" height="1" fill="#09041a"/><rect x="6" y="21" width="4" height="1" fill="#380663"/><rect x="10" y="21" width="1" height="1" fill="#71584d"/><rect x="11" y="21" width="6" height="1" fill="#ded6c5"/><rect x="17" y="21" width="2" height="1" fill="#573f39"/><rect x="19" y="21" width="8" height="1" fill="#060410"/><rect x="27" y="21" width="2" height="1" fill="#573f39"/><rect x="29" y="21" width="1" height="1" fill="#b8a993"/><rect x="30" y="21" width="1" height="1" fill="#ded6c5"/><rect x="31" y="21" width="1" height="1" fill="#2b1f20"/><rect x="32" y="21" width="4" height="1" fill="#b8a993"/><rect x="36" y="21" width="2" height="1" fill="#573f39"/><rect x="38" y="21" width="8" height="1" fill="#060410"/><rect x="46" y="21" width="4" height="1" fill="#573f39"/><rect x="50" y="21" width="2" height="1" fill="#382728"/><rect x="52" y="21" width="2" height="1" fill="#8a7160"/><rect x="54" y="21" width="1" height="1" fill="#0a0812"/><rect x="55" y="21" width="2" height="1" fill="#380663"/><rect x="57" y="21" width="3" height="1" fill="#09041a"/><rect x="60" y="21" width="3" height="1" fill="#14032b"/><rect x="63" y="21" width="1" height="1" fill="#0a0812"/><rect x="1" y="22" width="1" height="1" fill="#260547"/><rect x="2" y="22" width="4" height="1" fill="#380663"/><rect x="6" y="22" width="4" height="1" fill="#0a0812"/><rect x="10" y="22" width="1" height="1" fill="#71584d"/><rect x="11" y="22" width="5" height="1" fill="#ded6c5"/><rect x="16" y="22" width="2" height="1" fill="#573f39"/><rect x="18" y="22" width="1" height="1" fill="#060410"/><rect x="19" y="22" width="1" height="1" fill="#2f2225"/><rect x="20" y="22" width="8" height="1" fill="#060410"/><rect x="28" y="22" width="2" height="1" fill="#573f39"/><rect x="30" y="22" width="1" height="1" fill="#ded6c5"/><rect x="31" y="22" width="1" height="1" fill="#2b1f20"/><rect x="32" y="22" width="3" height="1" fill="#b8a993"/><rect x="35" y="22" width="2" height="1" fill="#573f39"/><rect x="37" y="22" width="8" height="1" fill="#060410"/><rect x="45" y="22" width="1" height="1" fill="#2f2225"/><rect x="46" y="22" width="1" height="1" fill="#060410"/><rect x="47" y="22" width="3" height="1" fill="#573f39"/><rect x="50" y="22" width="3" height="1" fill="#382728"/><rect x="53" y="22" width="1" height="1" fill="#8a7160"/><rect x="54" y="22" width="3" height="1" fill="#0a0812"/><rect x="57" y="22" width="3" height="1" fill="#380663"/><rect x="60" y="22" width="3" height="1" fill="#09041a"/><rect x="63" y="22" width="1" height="1" fill="#0a0812"/><rect x="1" y="23" width="6" height="1" fill="#0a0812"/><rect x="9" y="23" width="2" height="1" fill="#71584d"/><rect x="11" y="23" width="5" height="1" fill="#ded6c5"/><rect x="16" y="23" width="1" height="1" fill="#573f39"/><rect x="17" y="23" width="1" height="1" fill="#060410"/><rect x="18" y="23" width="1" height="1" fill="#2f2225"/><rect x="19" y="23" width="10" height="1" fill="#060410"/><rect x="29" y="23" width="1" height="1" fill="#ded6c5"/><rect x="30" y="23" width="1" height="1" fill="#2b1f20"/><rect x="31" y="23" width="1" height="1" fill="#573f39"/><rect x="32" y="23" width="1" height="1" fill="#b8a993"/><rect x="33" y="23" width="3" height="1" fill="#573f39"/><rect x="36" y="23" width="10" height="1" fill="#060410"/><rect x="46" y="23" width="1" height="1" fill="#2f2225"/><rect x="47" y="23" width="1" height="1" fill="#060410"/><rect x="48" y="23" width="2" height="1" fill="#573f39"/><rect x="50" y="23" width="3" height="1" fill="#382728"/><rect x="53" y="23" width="1" height="1" fill="#8a7160"/><rect x="54" y="23" width="6" height="1" fill="#0a0812"/><rect x="60" y="23" width="3" height="1" fill="#380663"/><rect x="63" y="23" width="1" height="1" fill="#0a0812"/><rect x="9" y="24" width="1" height="1" fill="#71584d"/><rect x="10" y="24" width="5" height="1" fill="#ded6c5"/><rect x="15" y="24" width="2" height="1" fill="#573f39"/><rect x="17" y="24" width="1" height="1" fill="#2f2225"/><rect x="18" y="24" width="11" height="1" fill="#060410"/><rect x="29" y="24" width="1" height="1" fill="#ded6c5"/><rect x="30" y="24" width="1" height="1" fill="#2b1f20"/><rect x="31" y="24" width="3" height="1" fill="#573f39"/><rect x="34" y="24" width="13" height="1" fill="#060410"/><rect x="47" y="24" width="1" height="1" fill="#2f2225"/><rect x="48" y="24" width="2" height="1" fill="#573f39"/><rect x="50" y="24" width="3" height="1" fill="#382728"/><rect x="53" y="24" width="2" height="1" fill="#8a7160"/><rect x="55" y="24" width="1" height="1" fill="#0a0812"/><rect x="59" y="24" width="5" height="1" fill="#0a0812"/><rect x="9" y="25" width="1" height="1" fill="#71584d"/><rect x="10" y="25" width="4" height="1" fill="#ded6c5"/><rect x="14" y="25" width="2" height="1" fill="#573f39"/><rect x="16" y="25" width="1" height="1" fill="#2f2225"/><rect x="17" y="25" width="11" height="1" fill="#060410"/><rect x="28" y="25" width="1" height="1" fill="#ded6c5"/><rect x="29" y="25" width="1" height="1" fill="#2b1f20"/><rect x="30" y="25" width="2" height="1" fill="#060410"/><rect x="32" y="25" width="1" height="1" fill="#573f39"/><rect x="33" y="25" width="15" height="1" fill="#060410"/><rect x="48" y="25" width="1" height="1" fill="#2f2225"/><rect x="49" y="25" width="2" height="1" fill="#573f39"/><rect x="51" y="25" width="2" height="1" fill="#382728"/><rect x="53" y="25" width="2" height="1" fill="#8a7160"/><rect x="55" y="25" width="1" height="1" fill="#0a0812"/><rect x="9" y="26" width="1" height="1" fill="#71584d"/><rect x="10" y="26" width="4" height="1" fill="#ded6c5"/><rect x="14" y="26" width="1" height="1" fill="#573f39"/><rect x="15" y="26" width="1" height="1" fill="#2f2225"/><rect x="16" y="26" width="12" height="1" fill="#060410"/><rect x="28" y="26" width="1" height="1" fill="#ded6c5"/><rect x="29" y="26" width="1" height="1" fill="#2b1f20"/><rect x="30" y="26" width="1" height="1" fill="#060410"/><rect x="31" y="26" width="3" height="1" fill="#573f39"/><rect x="34" y="26" width="15" height="1" fill="#060410"/><rect x="49" y="26" width="1" height="1" fill="#2f2225"/><rect x="50" y="26" width="1" height="1" fill="#573f39"/><rect x="51" y="26" width="2" height="1" fill="#382728"/><rect x="53" y="26" width="2" height="1" fill="#8a7160"/><rect x="55" y="26" width="1" height="1" fill="#0a0812"/><rect x="9" y="27" width="1" height="1" fill="#71584d"/><rect x="10" y="27" width="4" height="1" fill="#ded6c5"/><rect x="14" y="27" width="2" height="1" fill="#573f39"/><rect x="16" y="27" width="12" height="1" fill="#060410"/><rect x="28" y="27" width="1" height="1" fill="#ded6c5"/><rect x="29" y="27" width="1" height="1" fill="#2b1f20"/><rect x="30" y="27" width="2" height="1" fill="#573f39"/><rect x="32" y="27" width="1" height="1" fill="#b8a993"/><rect x="33" y="27" width="3" height="1" fill="#573f39"/><rect x="36" y="27" width="13" height="1" fill="#060410"/><rect x="49" y="27" width="2" height="1" fill="#573f39"/><rect x="51" y="27" width="1" height="1" fill="#382728"/><rect x="52" y="27" width="3" height="1" fill="#8a7160"/><rect x="55" y="27" width="1" height="1" fill="#0a0812"/><rect x="9" y="28" width="2" height="1" fill="#0a0812"/><rect x="11" y="28" width="4" height="1" fill="#ded6c5"/><rect x="15" y="28" width="3" height="1" fill="#573f39"/><rect x="18" y="28" width="10" height="1" fill="#060410"/><rect x="28" y="28" width="1" height="1" fill="#573f39"/><rect x="29" y="28" width="1" height="1" fill="#ded6c5"/><rect x="30" y="28" width="1" height="1" fill="#2b1f20"/><rect x="31" y="28" width="4" height="1" fill="#b8a993"/><rect x="35" y="28" width="2" height="1" fill="#573f39"/><rect x="37" y="28" width="10" height="1" fill="#060410"/><rect x="47" y="28" width="3" height="1" fill="#573f39"/><rect x="50" y="28" width="2" height="1" fill="#382728"/><rect x="52" y="28" width="3" height="1" fill="#8a7160"/><rect x="55" y="28" width="1" height="1" fill="#0a0812"/><rect x="10" y="29" width="1" height="1" fill="#71584d"/><rect x="11" y="29" width="4" height="1" fill="#ded6c5"/><rect x="15" y="29" width="1" height="1" fill="#b8a993"/><rect x="16" y="29" width="5" height="1" fill="#fcfaf2"/><rect x="21" y="29" width="8" height="1" fill="#573f39"/><rect x="29" y="29" width="1" height="1" fill="#ded6c5"/><rect x="30" y="29" width="1" height="1" fill="#2b1f20"/><rect x="31" y="29" width="5" height="1" fill="#b8a993"/><rect x="36" y="29" width="2" height="1" fill="#573f39"/><rect x="38" y="29" width="3" height="1" fill="#ded6c5"/><rect x="41" y="29" width="3" height="1" fill="#573f39"/><rect x="44" y="29" width="5" height="1" fill="#fcfaf2"/><rect x="49" y="29" width="3" height="1" fill="#382728"/><rect x="52" y="29" width="2" height="1" fill="#8a7160"/><rect x="54" y="29" width="2" height="1" fill="#0a0812"/><rect x="10" y="30" width="1" height="1" fill="#71584d"/><rect x="11" y="30" width="4" height="1" fill="#ded6c5"/><rect x="15" y="30" width="1" height="1" fill="#b8a993"/><rect x="16" y="30" width="11" height="1" fill="#fcfaf2"/><rect x="27" y="30" width="2" height="1" fill="#b8a993"/><rect x="29" y="30" width="1" height="1" fill="#ded6c5"/><rect x="30" y="30" width="1" height="1" fill="#2b1f20"/><rect x="31" y="30" width="5" height="1" fill="#b8a993"/><rect x="36" y="30" width="2" height="1" fill="#ded6c5"/><rect x="38" y="30" width="3" height="1" fill="#2b1f20"/><rect x="41" y="30" width="6" height="1" fill="#ded6c5"/><rect x="47" y="30" width="1" height="1" fill="#573f39"/><rect x="48" y="30" width="4" height="1" fill="#382728"/><rect x="52" y="30" width="2" height="1" fill="#8a7160"/><rect x="54" y="30" width="1" height="1" fill="#0a0812"/><rect x="10" y="31" width="1" height="1" fill="#71584d"/><rect x="11" y="31" width="4" height="1" fill="#ded6c5"/><rect x="15" y="31" width="1" height="1" fill="#b8a993"/><rect x="16" y="31" width="9" height="1" fill="#fcfaf2"/><rect x="25" y="31" width="4" height="1" fill="#b8a993"/><rect x="29" y="31" width="1" height="1" fill="#ded6c5"/><rect x="30" y="31" width="1" height="1" fill="#2b1f20"/><rect x="31" y="31" width="3" height="1" fill="#b8a993"/><rect x="34" y="31" width="2" height="1" fill="#ded6c5"/><rect x="36" y="31" width="2" height="1" fill="#2b1f20"/><rect x="38" y="31" width="3" height="1" fill="#ded6c5"/><rect x="41" y="31" width="4" height="1" fill="#2b1f20"/><rect x="45" y="31" width="2" height="1" fill="#ded6c5"/><rect x="47" y="31" width="1" height="1" fill="#573f39"/><rect x="48" y="31" width="3" height="1" fill="#382728"/><rect x="51" y="31" width="3" height="1" fill="#8a7160"/><rect x="54" y="31" width="1" height="1" fill="#0a0812"/><rect x="10" y="32" width="2" height="1" fill="#0a0812"/><rect x="12" y="32" width="3" height="1" fill="#ded6c5"/><rect x="15" y="32" width="1" height="1" fill="#b8a993"/><rect x="16" y="32" width="9" height="1" fill="#fcfaf2"/><rect x="25" y="32" width="5" height="1" fill="#b8a993"/><rect x="30" y="32" width="1" height="1" fill="#ded6c5"/><rect x="31" y="32" width="1" height="1" fill="#2b1f20"/><rect x="32" y="32" width="2" height="1" fill="#ded6c5"/><rect x="34" y="32" width="2" height="1" fill="#2b1f20"/><rect x="36" y="32" width="11" height="1" fill="#ded6c5"/><rect x="47" y="32" width="4" height="1" fill="#382728"/><rect x="51" y="32" width="3" height="1" fill="#8a7160"/><rect x="54" y="32" width="1" height="1" fill="#0a0812"/><rect x="11" y="33" width="1" height="1" fill="#71584d"/><rect x="12" y="33" width="4" height="1" fill="#ded6c5"/><rect x="16" y="33" width="1" height="1" fill="#b8a993"/><rect x="17" y="33" width="7" height="1" fill="#fcfaf2"/><rect x="24" y="33" width="6" height="1" fill="#b8a993"/><rect x="30" y="33" width="2" height="1" fill="#ded6c5"/><rect x="32" y="33" width="2" height="1" fill="#2b1f20"/><rect x="34" y="33" width="2" height="1" fill="#b8a993"/><rect x="36" y="33" width="11" height="1" fill="#ded6c5"/><rect x="47" y="33" width="4" height="1" fill="#382728"/><rect x="51" y="33" width="2" height="1" fill="#8a7160"/><rect x="53" y="33" width="2" height="1" fill="#0a0812"/><rect x="11" y="34" width="1" height="1" fill="#71584d"/><rect x="12" y="34" width="4" height="1" fill="#ded6c5"/><rect x="16" y="34" width="1" height="1" fill="#b8a993"/><rect x="17" y="34" width="7" height="1" fill="#fcfaf2"/><rect x="24" y="34" width="6" height="1" fill="#b8a993"/><rect x="30" y="34" width="1" height="1" fill="#ded6c5"/><rect x="31" y="34" width="1" height="1" fill="#2b1f20"/><rect x="32" y="34" width="4" height="1" fill="#b8a993"/><rect x="36" y="34" width="11" height="1" fill="#ded6c5"/><rect x="47" y="34" width="4" height="1" fill="#382728"/><rect x="51" y="34" width="2" height="1" fill="#8a7160"/><rect x="53" y="34" width="1" height="1" fill="#0a0812"/><rect x="11" y="35" width="1" height="1" fill="#71584d"/><rect x="12" y="35" width="4" height="1" fill="#ded6c5"/><rect x="16" y="35" width="2" height="1" fill="#b8a993"/><rect x="18" y="35" width="5" height="1" fill="#fcfaf2"/><rect x="23" y="35" width="6" height="1" fill="#b8a993"/><rect x="29" y="35" width="1" height="1" fill="#573f39"/><rect x="30" y="35" width="1" height="1" fill="#ded6c5"/><rect x="31" y="35" width="1" height="1" fill="#2b1f20"/><rect x="32" y="35" width="4" height="1" fill="#573f39"/><rect x="36" y="35" width="1" height="1" fill="#b8a993"/><rect x="37" y="35" width="9" height="1" fill="#ded6c5"/><rect x="46" y="35" width="4" height="1" fill="#382728"/><rect x="50" y="35" width="3" height="1" fill="#8a7160"/><rect x="53" y="35" width="1" height="1" fill="#0a0812"/><rect x="11" y="36" width="2" height="1" fill="#0a0812"/><rect x="13" y="36" width="3" height="1" fill="#ded6c5"/><rect x="16" y="36" width="3" height="1" fill="#b8a993"/><rect x="19" y="36" width="3" height="1" fill="#fcfaf2"/><rect x="22" y="36" width="4" height="1" fill="#b8a993"/><rect x="26" y="36" width="3" height="1" fill="#573f39"/><rect x="29" y="36" width="1" height="1" fill="#ded6c5"/><rect x="30" y="36" width="1" height="1" fill="#2b1f20"/><rect x="31" y="36" width="8" height="1" fill="#573f39"/><rect x="39" y="36" width="6" height="1" fill="#ded6c5"/><rect x="45" y="36" width="1" height="1" fill="#382728"/><rect x="46" y="36" width="1" height="1" fill="#573f39"/><rect x="47" y="36" width="3" height="1" fill="#382728"/><rect x="50" y="36" width="3" height="1" fill="#8a7160"/><rect x="53" y="36" width="1" height="1" fill="#0a0812"/><rect x="12" y="37" width="1" height="1" fill="#71584d"/><rect x="13" y="37" width="4" height="1" fill="#ded6c5"/><rect x="17" y="37" width="8" height="1" fill="#b8a993"/><rect x="25" y="37" width="2" height="1" fill="#573f39"/><rect x="27" y="37" width="1" height="1" fill="#ded6c5"/><rect x="28" y="37" width="1" height="1" fill="#573f39"/><rect x="29" y="37" width="1" height="1" fill="#ded6c5"/><rect x="30" y="37" width="1" height="1" fill="#2b1f20"/><rect x="31" y="37" width="9" height="1" fill="#573f39"/><rect x="40" y="37" width="4" height="1" fill="#ded6c5"/><rect x="44" y="37" width="1" height="1" fill="#060410"/><rect x="45" y="37" width="1" height="1" fill="#573f39"/><rect x="46" y="37" width="3" height="1" fill="#060410"/><rect x="49" y="37" width="3" height="1" fill="#8a7160"/><rect x="52" y="37" width="2" height="1" fill="#0a0812"/><rect x="12" y="38" width="1" height="1" fill="#71584d"/><rect x="13" y="38" width="4" height="1" fill="#ded6c5"/><rect x="17" y="38" width="7" height="1" fill="#b8a993"/><rect x="24" y="38" width="4" height="1" fill="#573f39"/><rect x="28" y="38" width="2" height="1" fill="#2b1f20"/><rect x="30" y="38" width="13" height="1" fill="#573f39"/><rect x="43" y="38" width="1" height="1" fill="#060410"/><rect x="44" y="38" width="2" height="1" fill="#573f39"/><rect x="46" y="38" width="3" height="1" fill="#060410"/><rect x="49" y="38" width="3" height="1" fill="#8a7160"/><rect x="52" y="38" width="1" height="1" fill="#0a0812"/><rect x="12" y="39" width="2" height="1" fill="#0a0812"/><rect x="14" y="39" width="3" height="1" fill="#ded6c5"/><rect x="17" y="39" width="6" height="1" fill="#b8a993"/><rect x="23" y="39" width="5" height="1" fill="#573f39"/><rect x="28" y="39" width="1" height="1" fill="#ded6c5"/><rect x="29" y="39" width="1" height="1" fill="#2b1f20"/><rect x="30" y="39" width="12" height="1" fill="#573f39"/><rect x="42" y="39" width="1" height="1" fill="#060410"/><rect x="43" y="39" width="1" height="1" fill="#573f39"/><rect x="44" y="39" width="5" height="1" fill="#060410"/><rect x="49" y="39" width="2" height="1" fill="#8a7160"/><rect x="51" y="39" width="2" height="1" fill="#0a0812"/><rect x="13" y="40" width="1" height="1" fill="#0a0812"/><rect x="14" y="40" width="3" height="1" fill="#ded6c5"/><rect x="17" y="40" width="3" height="1" fill="#b8a993"/><rect x="20" y="40" width="1" height="1" fill="#573f39"/><rect x="21" y="40" width="2" height="1" fill="#b8a993"/><rect x="23" y="40" width="4" height="1" fill="#573f39"/><rect x="27" y="40" width="1" height="1" fill="#ded6c5"/><rect x="28" y="40" width="1" height="1" fill="#2b1f20"/><rect x="29" y="40" width="12" height="1" fill="#573f39"/><rect x="41" y="40" width="1" height="1" fill="#060410"/><rect x="42" y="40" width="2" height="1" fill="#573f39"/><rect x="44" y="40" width="5" height="1" fill="#060410"/><rect x="49" y="40" width="2" height="1" fill="#8a7160"/><rect x="51" y="40" width="1" height="1" fill="#0a0812"/><rect x="13" y="41" width="2" height="1" fill="#0a0812"/><rect x="15" y="41" width="3" height="1" fill="#ded6c5"/><rect x="18" y="41" width="1" height="1" fill="#b8a993"/><rect x="19" y="41" width="2" height="1" fill="#060410"/><rect x="21" y="41" width="1" height="1" fill="#573f39"/><rect x="22" y="41" width="1" height="1" fill="#060410"/><rect x="23" y="41" width="4" height="1" fill="#573f39"/><rect x="27" y="41" width="1" height="1" fill="#ded6c5"/><rect x="28" y="41" width="1" height="1" fill="#2b1f20"/><rect x="29" y="41" width="13" height="1" fill="#573f39"/><rect x="42" y="41" width="1" height="1" fill="#564e4b"/><rect x="43" y="41" width="4" height="1" fill="#060410"/><rect x="47" y="41" width="3" height="1" fill="#8a7160"/><rect x="50" y="41" width="2" height="1" fill="#0a0812"/><rect x="14" y="42" width="1" height="1" fill="#0a0812"/><rect x="15" y="42" width="3" height="1" fill="#ded6c5"/><rect x="18" y="42" width="1" height="1" fill="#b8a993"/><rect x="19" y="42" width="3" height="1" fill="#060410"/><rect x="22" y="42" width="1" height="1" fill="#573f39"/><rect x="23" y="42" width="1" height="1" fill="#060410"/><rect x="24" y="42" width="2" height="1" fill="#573f39"/><rect x="26" y="42" width="1" height="1" fill="#ded6c5"/><rect x="27" y="42" width="1" height="1" fill="#2b1f20"/><rect x="28" y="42" width="13" height="1" fill="#573f39"/><rect x="41" y="42" width="2" height="1" fill="#564e4b"/><rect x="43" y="42" width="3" height="1" fill="#060410"/><rect x="46" y="42" width="1" height="1" fill="#fcfaf2"/><rect x="47" y="42" width="3" height="1" fill="#8a7160"/><rect x="50" y="42" width="1" height="1" fill="#0a0812"/><rect x="14" y="43" width="2" height="1" fill="#0a0812"/><rect x="16" y="43" width="2" height="1" fill="#ded6c5"/><rect x="18" y="43" width="1" height="1" fill="#b8a993"/><rect x="19" y="43" width="4" height="1" fill="#060410"/><rect x="23" y="43" width="2" height="1" fill="#573f39"/><rect x="25" y="43" width="1" height="1" fill="#060410"/><rect x="26" y="43" width="1" height="1" fill="#ded6c5"/><rect x="27" y="43" width="1" height="1" fill="#2b1f20"/><rect x="28" y="43" width="11" height="1" fill="#573f39"/><rect x="39" y="43" width="1" height="1" fill="#060410"/><rect x="40" y="43" width="2" height="1" fill="#564e4b"/><rect x="42" y="43" width="3" height="1" fill="#060410"/><rect x="45" y="43" width="1" height="1" fill="#fcfaf2"/><rect x="46" y="43" width="3" height="1" fill="#8a7160"/><rect x="49" y="43" width="2" height="1" fill="#0a0812"/><rect x="15" y="44" width="2" height="1" fill="#0a0812"/><rect x="17" y="44" width="2" height="1" fill="#ded6c5"/><rect x="19" y="44" width="6" height="1" fill="#060410"/><rect x="25" y="44" width="2" height="1" fill="#573f39"/><rect x="27" y="44" width="1" height="1" fill="#ded6c5"/><rect x="28" y="44" width="1" height="1" fill="#2b1f20"/><rect x="29" y="44" width="8" height="1" fill="#573f39"/><rect x="37" y="44" width="2" height="1" fill="#060410"/><rect x="39" y="44" width="2" height="1" fill="#564e4b"/><rect x="41" y="44" width="3" height="1" fill="#060410"/><rect x="44" y="44" width="2" height="1" fill="#fcfaf2"/><rect x="46" y="44" width="3" height="1" fill="#8a7160"/><rect x="49" y="44" width="1" height="1" fill="#0a0812"/><rect x="16" y="45" width="1" height="1" fill="#0a0812"/><rect x="17" y="45" width="3" height="1" fill="#ded6c5"/><rect x="20" y="45" width="4" height="1" fill="#060410"/><rect x="24" y="45" width="1" height="1" fill="#8a7160"/><rect x="25" y="45" width="2" height="1" fill="#060410"/><rect x="27" y="45" width="1" height="1" fill="#ded6c5"/><rect x="28" y="45" width="1" height="1" fill="#2b1f20"/><rect x="29" y="45" width="1" height="1" fill="#8a7160"/><rect x="30" y="45" width="5" height="1" fill="#573f39"/><rect x="35" y="45" width="1" height="1" fill="#8a7160"/><rect x="36" y="45" width="2" height="1" fill="#060410"/><rect x="38" y="45" width="2" height="1" fill="#564e4b"/><rect x="40" y="45" width="1" height="1" fill="#8a7160"/><rect x="41" y="45" width="2" height="1" fill="#060410"/><rect x="43" y="45" width="2" height="1" fill="#fcfaf2"/><rect x="45" y="45" width="3" height="1" fill="#8a7160"/><rect x="48" y="45" width="2" height="1" fill="#0a0812"/><rect x="16" y="46" width="2" height="1" fill="#0a0812"/><rect x="18" y="46" width="2" height="1" fill="#ded6c5"/><rect x="20" y="46" width="1" height="1" fill="#fcfaf2"/><rect x="21" y="46" width="3" height="1" fill="#060410"/><rect x="24" y="46" width="1" height="1" fill="#8a7160"/><rect x="25" y="46" width="2" height="1" fill="#564e4b"/><rect x="27" y="46" width="1" height="1" fill="#060410"/><rect x="28" y="46" width="1" height="1" fill="#ded6c5"/><rect x="29" y="46" width="1" height="1" fill="#2b1f20"/><rect x="30" y="46" width="5" height="1" fill="#060410"/><rect x="35" y="46" width="1" height="1" fill="#8a7160"/><rect x="36" y="46" width="2" height="1" fill="#564e4b"/><rect x="38" y="46" width="2" height="1" fill="#060410"/><rect x="40" y="46" width="1" height="1" fill="#8a7160"/><rect x="41" y="46" width="1" height="1" fill="#060410"/><rect x="42" y="46" width="2" height="1" fill="#fcfaf2"/><rect x="44" y="46" width="3" height="1" fill="#8a7160"/><rect x="47" y="46" width="2" height="1" fill="#0a0812"/><rect x="17" y="47" width="1" height="1" fill="#0a0812"/><rect x="18" y="47" width="2" height="1" fill="#ded6c5"/><rect x="20" y="47" width="1" height="1" fill="#b8a993"/><rect x="21" y="47" width="1" height="1" fill="#fcfaf2"/><rect x="22" y="47" width="2" height="1" fill="#060410"/><rect x="24" y="47" width="1" height="1" fill="#8a7160"/><rect x="25" y="47" width="1" height="1" fill="#060410"/><rect x="26" y="47" width="2" height="1" fill="#564e4b"/><rect x="28" y="47" width="1" height="1" fill="#ded6c5"/><rect x="29" y="47" width="1" height="1" fill="#2b1f20"/><rect x="30" y="47" width="4" height="1" fill="#060410"/><rect x="34" y="47" width="1" height="1" fill="#564e4b"/><rect x="35" y="47" width="1" height="1" fill="#8a7160"/><rect x="36" y="47" width="1" height="1" fill="#564e4b"/><rect x="37" y="47" width="3" height="1" fill="#060410"/><rect x="40" y="47" width="1" height="1" fill="#8a7160"/><rect x="41" y="47" width="1" height="1" fill="#fcfaf2"/><rect x="42" y="47" width="2" height="1" fill="#382728"/><rect x="44" y="47" width="3" height="1" fill="#8a7160"/><rect x="47" y="47" width="1" height="1" fill="#0a0812"/><rect x="17" y="48" width="2" height="1" fill="#0a0812"/><rect x="19" y="48" width="2" height="1" fill="#ded6c5"/><rect x="21" y="48" width="1" height="1" fill="#b8a993"/><rect x="22" y="48" width="1" height="1" fill="#fcfaf2"/><rect x="23" y="48" width="1" height="1" fill="#060410"/><rect x="24" y="48" width="1" height="1" fill="#8a7160"/><rect x="25" y="48" width="3" height="1" fill="#060410"/><rect x="28" y="48" width="1" height="1" fill="#ded6c5"/><rect x="29" y="48" width="1" height="1" fill="#2b1f20"/><rect x="30" y="48" width="5" height="1" fill="#564e4b"/><rect x="35" y="48" width="1" height="1" fill="#8a7160"/><rect x="36" y="48" width="3" height="1" fill="#060410"/><rect x="39" y="48" width="1" height="1" fill="#382728"/><rect x="40" y="48" width="1" height="1" fill="#8a7160"/><rect x="41" y="48" width="2" height="1" fill="#382728"/><rect x="43" y="48" width="3" height="1" fill="#8a7160"/><rect x="46" y="48" width="2" height="1" fill="#0a0812"/><rect x="18" y="49" width="1" height="1" fill="#0a0812"/><rect x="19" y="49" width="1" height="1" fill="#382728"/><rect x="20" y="49" width="3" height="1" fill="#573f39"/><rect x="23" y="49" width="1" height="1" fill="#fcfaf2"/><rect x="24" y="49" width="1" height="1" fill="#8a7160"/><rect x="25" y="49" width="1" height="1" fill="#573f39"/><rect x="26" y="49" width="3" height="1" fill="#060410"/><rect x="29" y="49" width="1" height="1" fill="#ded6c5"/><rect x="30" y="49" width="1" height="1" fill="#2b1f20"/><rect x="31" y="49" width="4" height="1" fill="#060410"/><rect x="35" y="49" width="1" height="1" fill="#8a7160"/><rect x="36" y="49" width="1" height="1" fill="#060410"/><rect x="37" y="49" width="3" height="1" fill="#fcfaf2"/><rect x="40" y="49" width="1" height="1" fill="#8a7160"/><rect x="41" y="49" width="1" height="1" fill="#382728"/><rect x="42" y="49" width="4" height="1" fill="#8a7160"/><rect x="46" y="49" width="1" height="1" fill="#0a0812"/><rect x="18" y="50" width="2" height="1" fill="#0a0812"/><rect x="20" y="50" width="1" height="1" fill="#382728"/><rect x="21" y="50" width="3" height="1" fill="#573f39"/><rect x="24" y="50" width="1" height="1" fill="#8a7160"/><rect x="25" y="50" width="2" height="1" fill="#fcfaf2"/><rect x="27" y="50" width="2" height="1" fill="#573f39"/><rect x="29" y="50" width="1" height="1" fill="#ded6c5"/><rect x="30" y="50" width="1" height="1" fill="#2b1f20"/><rect x="31" y="50" width="3" height="1" fill="#573f39"/><rect x="34" y="50" width="1" height="1" fill="#382728"/><rect x="35" y="50" width="1" height="1" fill="#8a7160"/><rect x="36" y="50" width="3" height="1" fill="#fcfaf2"/><rect x="39" y="50" width="1" height="1" fill="#382728"/><rect x="40" y="50" width="5" height="1" fill="#8a7160"/><rect x="45" y="50" width="2" height="1" fill="#0a0812"/><rect x="19" y="51" width="2" height="1" fill="#0a0812"/><rect x="21" y="51" width="1" height="1" fill="#382728"/><rect x="22" y="51" width="4" height="1" fill="#573f39"/><rect x="26" y="51" width="3" height="1" fill="#fcfaf2"/><rect x="29" y="51" width="1" height="1" fill="#ded6c5"/><rect x="30" y="51" width="1" height="1" fill="#2b1f20"/><rect x="31" y="51" width="2" height="1" fill="#573f39"/><rect x="33" y="51" width="4" height="1" fill="#fcfaf2"/><rect x="37" y="51" width="3" height="1" fill="#382728"/><rect x="40" y="51" width="4" height="1" fill="#8a7160"/><rect x="44" y="51" width="2" height="1" fill="#0a0812"/><rect x="20" y="52" width="2" height="1" fill="#0a0812"/><rect x="22" y="52" width="1" height="1" fill="#8a7160"/><rect x="23" y="52" width="5" height="1" fill="#573f39"/><rect x="28" y="52" width="1" height="1" fill="#ded6c5"/><rect x="29" y="52" width="1" height="1" fill="#2b1f20"/><rect x="30" y="52" width="4" height="1" fill="#fcfaf2"/><rect x="34" y="52" width="5" height="1" fill="#382728"/><rect x="39" y="52" width="4" height="1" fill="#8a7160"/><rect x="43" y="52" width="2" height="1" fill="#0a0812"/><rect x="21" y="53" width="2" height="1" fill="#0a0812"/><rect x="23" y="53" width="1" height="1" fill="#8a7160"/><rect x="24" y="53" width="4" height="1" fill="#382728"/><rect x="28" y="53" width="1" height="1" fill="#ded6c5"/><rect x="29" y="53" width="1" height="1" fill="#2b1f20"/><rect x="30" y="53" width="7" height="1" fill="#382728"/><rect x="37" y="53" width="5" height="1" fill="#8a7160"/><rect x="42" y="53" width="2" height="1" fill="#0a0812"/><rect x="22" y="54" width="3" height="1" fill="#0a0812"/><rect x="25" y="54" width="2" height="1" fill="#382728"/><rect x="27" y="54" width="1" height="1" fill="#ded6c5"/><rect x="28" y="54" width="1" height="1" fill="#2b1f20"/><rect x="29" y="54" width="7" height="1" fill="#382728"/><rect x="36" y="54" width="5" height="1" fill="#8a7160"/><rect x="41" y="54" width="2" height="1" fill="#0a0812"/><rect x="24" y="55" width="2" height="1" fill="#0a0812"/><rect x="26" y="55" width="1" height="1" fill="#382728"/><rect x="27" y="55" width="1" height="1" fill="#ded6c5"/><rect x="28" y="55" width="1" height="1" fill="#2b1f20"/><rect x="29" y="55" width="6" height="1" fill="#382728"/><rect x="35" y="55" width="4" height="1" fill="#8a7160"/><rect x="39" y="55" width="3" height="1" fill="#0a0812"/><rect x="25" y="56" width="1" height="1" fill="#0a0812"/><rect x="26" y="56" width="1" height="1" fill="#ded6c5"/><rect x="27" y="56" width="1" height="1" fill="#2b1f20"/><rect x="28" y="56" width="10" height="1" fill="#8a7160"/><rect x="38" y="56" width="2" height="1" fill="#0a0812"/><rect x="26" y="57" width="2" height="1" fill="#0a0812"/><rect x="28" y="57" width="9" height="1" fill="#8a7160"/><rect x="37" y="57" width="2" height="1" fill="#0a0812"/><rect x="27" y="58" width="11" height="1" fill="#0a0812"/></svg>