<svg xmlns="http://www.w3.org/2000/svg" width="64" height="64" viewBox="0 0 64 64" shape-rendering="crispEdges"><rect x="31" y="2" width="1" height="1" fill="#2b0803"/><rect x="30" y="3" width="3" height="1" fill="#2b0803"/><rect x="30" y="4" width="1" height="1" fill="#2b0803"/><rect x="31" y="4" width="1" height="1" fill="#632106"/><rect x="32" y="4" width="1" height="1" fill="#2b0803"/><rect x="29" y="5" width="1" height="1" fill="#2b0803"/><rect x="30" y="5" width="3" height="1" fill="#632106"/><rect x="33" y="5" width="1" height="1" fill="#2b0803"/><rect x="28" y="6" width="2" height="1" fill="#2b0803"/><rect x="30" y="6" width="1" height="1" fill="#632106"/><rect x="31" y="6" width="1" height="1" fill="#a6571b"/><rect x="32" y="6" width="1" height="1" fill="#632106"/><rect x="33" y="6" width="2" height="1" fill="#2b0803"/><rect x="27" y="7" width="2" height="1" fill="#2b0803"/><rect x="29" y="7" width="1" height="1" fill="#632106"/><rect x="30" y="7" width="3" height="1" fill="#a6571b"/><rect x="33" y="7" width="1" height="1" fill="#632106"/><rect x="34" y="7" width="2" height="1" fill="#2b0803"/><rect x="27" y="8" width="1" height="1" fill="#2b0803"/><rect x="28" y="8" width="2" height="1" fill="#632106"/><rect x="30" y="8" width="3" height="1" fill="#a6571b"/><rect x="33" y="8" width="2" height="1" fill="#632106"/><rect x="35" y="8" width="1" height="1" fill="#2b0803"/><rect x="26" y="9" width="2" height="1" fill="#2b0803"/><rect x="28" y="9" width="1" height="1" fill="#632106"/><rect x="29" y="9" width="2" height="1" fill="#a6571b"/><rect x="31" y="9" width="1" height="1" fill="#dea65d"/><rect x="32" y="9" width="2" height="1" fill="#a6571b"/><rect x="34" y="9" width="1" height="1" fill="#632106"/><rect x="35" y="9" width="2" height="1" fill="#2b0803"/><rect x="26" y="10" width="1" height="1" fill="#2b0803"/><rect x="27" y="10" width="2" height="1" fill="#632106"/><rect x="29" y="10" width="1" height="1" fill="#a6571b"/><rect x="30" y="10" width="3" height="1" fill="#dea65d"/><rect x="33" y="10" width="1" height="1" fill="#a6571b"/><rect x="34" y="10" width="2" height="1" fill="#632106"/><rect x="36" y="10" width="1" height="1" fill="#2b0803"/><rect x="26" y="11" width="1" height="1" fill="#2b0803"/><rect x="27" y="11" width="1" height="1" fill="#632106"/><rect x="28" y="11" width="2" height="1" fill="#a6571b"/><rect x="30" y="11" width="3" height="1" fill="#dea65d"/><rect x="33" y="11" width="2" height="1" fill="#a6571b"/><rect x="35" y="11" width="1" height="1" fill="#632106"/><rect x="36" y="11" width="1" height="1" fill="#2b0803"/><rect x="26" y="12" width="1" height="1" fill="#2b0803"/><rect x="27" y="12" width="1" height="1" fill="#632106"/><rect x="28" y="12" width="1" height="1" fill="#a6571b"/><rect x="29" y="12" width="2" height="1" fill="#dea65d"/><rect x="31" y="12" width="1" height="1" fill="#fff5db"/><rect x="32" y="12" width="2" height="1" fill="#dea65d"/><rect x="34" y="12" width="1" height="1" fill="#a6571b"/><rect x="35" y="12" width="1" height="1" fill="#632106"/><rect x="36" y="12" width="1" height="1" fill="#2b0803"/><rect x="25" y="13" width="2" height="1" fill="#2b0803"/><rect x="27" y="13" width="1" height="1" fill="#632106"/><rect x="28" y="13" width="1" height="1" fill="#a6571b"/><rect x="29" y="13" width="2" height="1" fill="#dea65d"/><rect x="31" y="13" width="2" height="1" fill="#fff5db"/><rect x="33" y="13" width="1" height="1" fill="#dea65d"/><rect x="34" y="13" width="1" height="1" fill="#a6571b"/><rect x="35" y="13" width="1" height="1" fill="#632106"/><rect x="36" y="13" width="2" height="1" fill="#2b0803"/><rect x="25" y="14" width="2" height="1" fill="#2b0803"/><rect x="27" y="14" width="1" height="1" fill="#632106"/><rect x="28" y="14" width="2" height="1" fill="#a6571b"/><rect x="30" y="14" width="3" height="1" fill="#fff5db"/><rect x="33" y="14" width="1" height="1" fill="#dea65d"/><rect x="34" y="14" width="1" height="1" fill="#a6571b"/><rect x="35" y="14" width="1" height="1" fill="#632106"/><rect x="36" y="14" width="2" height="1" fill="#2b0803"/><rect x="25" y="15" width="2" height="1" fill="#2b0803"/><rect x="27" y="15" width="1" height="1" fill="#632106"/><rect x="28" y="15" width="3" height="1" fill="#a6571b"/><rect x="31" y="15" width="2" height="1" fill="#fff5db"/><rect x="33" y="15" width="2" height="1" fill="#a6571b"/><rect x="35" y="15" width="1" height="1" fill="#632106"/><rect x="36" y="15" width="2" height="1" fill="#2b0803"/><rect x="25" y="16" width="3" height="1" fill="#2b0803"/><rect x="28" y="16" width="1" height="1" fill="#632106"/><rect x="29" y="16" width="5" height="1" fill="#a6571b"/><rect x="34" y="16" width="1" height="1" fill="#632106"/><rect x="35" y="16" width="3" height="1" fill="#2b0803"/><rect x="25" y="17" width="1" height="1" fill="#534434"/><rect x="26" y="17" width="3" height="1" fill="#2b0803"/><rect x="29" y="17" width="1" height="1" fill="#632106"/><rect x="30" y="17" width="4" height="1" fill="#a6571b"/><rect x="34" y="17" width="3" height="1" fill="#2b0803"/><rect x="37" y="17" width="1" height="1" fill="#0a0812"/><rect x="25" y="18" width="1" height="1" fill="#534434"/><rect x="26" y="18" width="1" height="1" fill="#261e1c"/><rect x="27" y="18" width="1" height="1" fill="#2b0803"/><rect x="28" y="18" width="6" height="1" fill="#c7a972"/><rect x="34" y="18" width="2" height="1" fill="#2b0803"/><rect x="36" y="18" width="1" height="1" fill="#69563f"/><rect x="37" y="18" width="1" height="1" fill="#0a0812"/><rect x="25" y="19" width="1" height="1" fill="#534434"/><rect x="26" y="19" width="2" height="1" fill="#3d3129"/><rect x="28" y="19" width="6" height="1" fill="#c7a972"/><rect x="34" y="19" width="3" height="1" fill="#3d3129"/><rect x="37" y="19" width="1" height="1" fill="#0a0812"/><rect x="25" y="20" width="1" height="1" fill="#534434"/><rect x="26" y="20" width="1" height="1" fill="#b5ab84"/><rect x="27" y="20" width="1" height="1" fill="#3d3129"/><rect x="28" y="20" width="6" height="1" fill="#c7a972"/><rect x="34" y="20" width="2" height="1" fill="#3d3129"/><rect x="36" y="20" width="1" height="1" fill="#69563f"/><rect x="37" y="20" width="1" height="1" fill="#0a0812"/><rect x="25" y="21" width="1" height="1" fill="#534434"/><rect x="26" y="21" width="1" height="1" fill="#b5ab84"/><rect x="27" y="21" width="1" height="1" fill="#d4d0ae"/><rect x="28" y="21" width="1" height="1" fill="#b5ab84"/><rect x="29" y="21" width="1" height="1" fill="#91825d"/><rect x="30" y="21" width="4" height="1" fill="#3d3129"/><rect x="34" y="21" width="1" height="1" fill="#261e1c"/><rect x="35" y="21" width="1" height="1" fill="#3d3129"/><rect x="36" y="21" width="1" height="1" fill="#69563f"/><rect x="37" y="21" width="1" height="1" fill="#0a0812"/><rect x="25" y="22" width="1" height="1" fill="#534434"/><rect x="26" y="22" width="1" height="1" fill="#b5ab84"/><rect x="27" y="22" width="1" height="1" fill="#d4d0ae"/><rect x="28" y="22" width="1" height="1" fill="#b5ab84"/><rect x="29" y="22" width="3" height="1" fill="#91825d"/><rect x="32" y="22" width="2" height="1" fill="#3d3129"/><rect x="34" y="22" width="1" height="1" fill="#261e1c"/><rect x="35" y="22" width="1" height="1" fill="#3d3129"/><rect x="36" y="22" width="1" height="1" fill="#69563f"/><rect x="37" y="22" width="1" height="1" fill="#0a0812"/><rect x="25" y="23" width="1" height="1" fill="#534434"/><rect x="26" y="23" width="1" height="1" fill="#b5ab84"/><rect x="27" y="23" width="1" height="1" fill="#d4d0ae"/><rect x="28" y="23" width="1" height="1" fill="#3d3129"/><rect x="29" y="23" width="3" height="1" fill="#91825d"/><rect x="32" y="23" width="2" height="1" fill="#3d3129"/><rect x="34" y="23" width="1" height="1" fill="#261e1c"/><rect x="35" y="23" width="1" height="1" fill="#3d3129"/><rect x="36" y="23" width="1" height="1" fill="#69563f"/><rect x="37" y="23" width="1" height="1" fill="#0a0812"/><rect x="25" y="24" width="1" height="1" fill="#534434"/><rect x="26" y="24" width="1" height="1" fill="#b5ab84"/><rect x="27" y="24" width="1" height="1" fill="#d4d0ae"/><rect x="28" y="24" width="1" height="1" fill="#3d3129"/><rect x="29" y="24" width="3" height="1" fill="#91825d"/><rect x="32" y="24" width="2" height="1" fill="#3d3129"/><rect x="34" y="24" width="1" height="1" fill="#261e1c"/><rect x="35" y="24" width="1" height="1" fill="#3d3129"/><rect x="36" y="24" width="1" height="1" fill="#69563f"/><rect x="37" y="24" width="1" height="1" fill="#0a0812"/><rect x="25" y="25" width="1" height="1" fill="#534434"/><rect x="26" y="25" width="1" height="1" fill="#b5ab84"/><rect x="27" y="25" width="1" height="1" fill="#d4d0ae"/><rect x="28" y="25" width="1" height="1" fill="#3d3129"/><rect x="29" y="25" width="3" height="1" fill="#91825d"/><rect x="32" y="25" width="2" height="1" fill="#3d3129"/><rect x="34" y="25" width="1" height="1" fill="#261e1c"/><rect x="35" y="25" width="1" height="1" fill="#3d3129"/><rect x="36" y="25" width="1" height="1" fill="#69563f"/><rect x="37" y="25" width="1" height="1" fill="#0a0812"/><rect x="25" y="26" width="1" height="1" fill="#534434"/><rect x="26" y="26" width="1" height="1" fill="#b5ab84"/><rect x="27" y="26" width="1" height="1" fill="#d4d0ae"/><rect x="28" y="26" width="1" height="1" fill="#3d3129"/><rect x="29" y="26" width="3" height="1" fill="#91825d"/><rect x="32" y="26" width="2" height="1" fill="#3d3129"/><rect x="34" y="26" width="1" height="1" fill="#261e1c"/><rect x="35" y="26" width="1" height="1" fill="#3d3129"/><rect x="36" y="26" width="1" height="1" fill="#69563f"/><rect x="37" y="26" width="1" height="1" fill="#0a0812"/><rect x="25" y="27" width="1" height="1" fill="#534434"/><rect x="26" y="27" width="1" height="1" fill="#b5ab84"/><rect x="27" y="27" width="1" height="1" fill="#d4d0ae"/><rect x="28" y="27" width="1" height="1" fill="#3d3129"/><rect x="29" y="27" width="3" height="1" fill="#91825d"/><rect x="32" y="27" width="2" height="1" fill="#3d3129"/><rect x="34" y="27" width="1" height="1" fill="#261e1c"/><rect x="35" y="27" width="1" height="1" fill="#3d3129"/><rect x="36" y="27" width="1" height="1" fill="#69563f"/><rect x="37" y="27" width="1" height="1" fill="#0a0812"/><rect x="25" y="28" width="1" height="1" fill="#534434"/><rect x="26" y="28" width="1" height="1" fill="#b5ab84"/><rect x="27" y="28" width="1" height="1" fill="#d4d0ae"/><rect x="28" y="28" width="1" height="1" fill="#3d3129"/><rect x="29" y="28" width="3" height="1" fill="#91825d"/><rect x="32" y="28" width="2" height="1" fill="#3d3129"/><rect x="34" y="28" width="1" height="1" fill="#261e1c"/><rect x="35" y="28" width="1" height="1" fill="#3d3129"/><rect x="36" y="28" width="1" height="1" fill="#69563f"/><rect x="37" y="28" width="1" height="1" fill="#0a0812"/><rect x="25" y="29" width="1" height="1" fill="#534434"/><rect x="26" y="29" width="1" height="1" fill="#b5ab84"/><rect x="27" y="29" width="1" height="1" fill="#d4d0ae"/><rect x="28" y="29" width="2" height="1" fill="#3d3129"/><rect x="30" y="29" width="2" height="1" fill="#91825d"/><rect x="32" y="29" width="2" height="1" fill="#3d3129"/><rect x="34" y="29" width="1" height="1" fill="#261e1c"/><rect x="35" y="29" width="1" height="1" fill="#3d3129"/><rect x="36" y="29" width="1" height="1" fill="#69563f"/><rect x="37" y="29" width="1" height="1" fill="#0a0812"/><rect x="25" y="30" width="1" height="1" fill="#534434"/><rect x="26" y="30" width="1" height="1" fill="#b5ab84"/><rect x="27" y="30" width="1" height="1" fill="#d4d0ae"/><rect x="28" y="30" width="2" height="1" fill="#3d3129"/><rect x="30" y="30" width="2" height="1" fill="#91825d"/><rect x="32" y="30" width="2" height="1" fill="#3d3129"/><rect x="34" y="30" width="1" height="1" fill="#261e1c"/><rect x="35" y="30" width="1" height="1" fill="#3d3129"/><rect x="36" y="30" width="1" height="1" fill="#69563f"/><rect x="37" y="30" width="1" height="1" fill="#0a0812"/><rect x="25" y="31" width="1" height="1" fill="#534434"/><rect x="26" y="31" width="1" height="1" fill="#b5ab84"/><rect x="27" y="31" width="1" height="1" fill="#d4d0ae"/><rect x="28" y="31" width="2" height="1" fill="#3d3129"/><rect x="30" y="31" width="2" height="1" fill="#91825d"/><rect x="32" y="31" width="5" height="1" fill="#3d3129"/><rect x="37" y="31" width="1" height="1" fill="#0a0812"/><rect x="25" y="32" width="1" height="1" fill="#534434"/><rect x="26" y="32" width="1" height="1" fill="#b5ab84"/><rect x="27" y="32" width="1" height="1" fill="#d4d0ae"/><rect x="28" y="32" width="1" height="1" fill="#b5ab84"/><rect x="29" y="32" width="3" height="1" fill="#91825d"/><rect x="32" y="32" width="5" height="1" fill="#3d3129"/><rect x="37" y="32" width="1" height="1" fill="#0a0812"/><rect x="25" y="33" width="1" height="1" fill="#534434"/><rect x="26" y="33" width="1" height="1" fill="#b5ab84"/><rect x="27" y="33" width="1" height="1" fill="#d4d0ae"/><rect x="28" y="33" width="1" height="1" fill="#b5ab84"/><rect x="29" y="33" width="3" height="1" fill="#91825d"/><rect x="32" y="33" width="5" height="1" fill="#3d3129"/><rect x="37" y="33" width="1" height="1" fill="#0a0812"/><rect x="25" y="34" width="1" height="1" fill="#534434"/><rect x="26" y="34" width="1" height="1" fill="#b5ab84"/><rect x="27" y="34" width="1" height="1" fill="#d4d0ae"/><rect x="28" y="34" width="1" height="1" fill="#b5ab84"/><rect x="29" y="34" width="3" height="1" fill="#91825d"/><rect x="32" y="34" width="2" height="1" fill="#3d3129"/><rect x="34" y="34" width="1" height="1" fill="#261e1c"/><rect x="35" y="34" width="1" height="1" fill="#3d3129"/><rect x="36" y="34" width="1" height="1" fill="#69563f"/><rect x="37" y="34" width="1" height="1" fill="#0a0812"/><rect x="25" y="35" width="1" height="1" fill="#534434"/><rect x="26" y="35" width="1" height="1" fill="#b5ab84"/><rect x="27" y="35" width="1" height="1" fill="#d4d0ae"/><rect x="28" y="35" width="1" height="1" fill="#b5ab84"/><rect x="29" y="35" width="3" height="1" fill="#91825d"/><rect x="32" y="35" width="2" height="1" fill="#3d3129"/><rect x="34" y="35" width="2" height="1" fill="#261e1c"/><rect x="36" y="35" width="1" height="1" fill="#69563f"/><rect x="37" y="35" width="1" height="1" fill="#0a0812"/><rect x="39" y="35" width="2" height="1" fill="#522920"/><rect x="41" y="35" width="1" height="1" fill="#0a0812"/><rect x="25" y="36" width="1" height="1" fill="#534434"/><rect x="26" y="36" width="1" height="1" fill="#b5ab84"/><rect x="27" y="36" width="1" height="1" fill="#d4d0ae"/><rect x="28" y="36" width="1" height="1" fill="#b5ab84"/><rect x="29" y="36" width="3" height="1" fill="#91825d"/><rect x="32" y="36" width="2" height="1" fill="#3d3129"/><rect x="34" y="36" width="2" height="1" fill="#261e1c"/><rect x="36" y="36" width="1" height="1" fill="#69563f"/><rect x="37" y="36" width="1" height="1" fill="#0a0812"/><rect x="38" y="36" width="2" height="1" fill="#522920"/><rect x="40" y="36" width="1" height="1" fill="#c7a073"/><rect x="41" y="36" width="1" height="1" fill="#0a0812"/><rect x="42" y="36" width="2" height="1" fill="#522920"/><rect x="44" y="36" width="1" height="1" fill="#0a0812"/><rect x="25" y="37" width="1" height="1" fill="#534434"/><rect x="26" y="37" width="3" height="1" fill="#b5ab84"/><rect x="29" y="37" width="3" height="1" fill="#91825d"/><rect x="32" y="37" width="2" height="1" fill="#3d3129"/><rect x="34" y="37" width="3" height="1" fill="#854a2a"/><rect x="37" y="37" width="1" height="1" fill="#0a0812"/><rect x="38" y="37" width="4" height="1" fill="#d9c55b"/><rect x="42" y="37" width="2" height="1" fill="#c7a073"/><rect x="44" y="37" width="3" height="1" fill="#0a0812"/><rect x="21" y="38" width="4" height="1" fill="#522920"/><rect x="25" y="38" width="3" height="1" fill="#0a0812"/><rect x="28" y="38" width="9" height="1" fill="#ba8350"/><rect x="37" y="38" width="4" height="1" fill="#854a2a"/><rect x="41" y="38" width="2" height="1" fill="#9c6642"/><rect x="43" y="38" width="3" height="1" fill="#d9c55b"/><rect x="46" y="38" width="1" height="1" fill="#0a0812"/><rect x="47" y="38" width="2" height="1" fill="#522920"/><rect x="49" y="38" width="1" height="1" fill="#0a0812"/><rect x="14" y="39" width="8" height="1" fill="#522920"/><rect x="22" y="39" width="2" height="1" fill="#854a2a"/><rect x="24" y="39" width="15" height="1" fill="#ba8350"/><rect x="39" y="39" width="4" height="1" fill="#854a2a"/><rect x="43" y="39" width="3" height="1" fill="#9c6642"/><rect x="46" y="39" width="3" height="1" fill="#d9c55b"/><rect x="49" y="39" width="1" height="1" fill="#0a0812"/><rect x="50" y="39" width="2" height="1" fill="#522920"/><rect x="52" y="39" width="1" height="1" fill="#0a0812"/><rect x="8" y="40" width="7" height="1" fill="#522920"/><rect x="15" y="40" width="5" height="1" fill="#c7a073"/><rect x="20" y="40" width="6" height="1" fill="#854a2a"/><rect x="26" y="40" width="11" height="1" fill="#ba8350"/><rect x="37" y="40" width="6" height="1" fill="#854a2a"/><rect x="43" y="40" width="5" height="1" fill="#9c6642"/><rect x="48" y="40" width="2" height="1" fill="#d9c55b"/><rect x="50" y="40" width="2" height="1" fill="#9c6642"/><rect x="52" y="40" width="3" height="1" fill="#0a0812"/><rect x="2" y="41" width="2" height="1" fill="#533c2a"/><rect x="4" y="41" width="1" height="1" fill="#0a0812"/><rect x="5" y="41" width="4" height="1" fill="#522920"/><rect x="9" y="41" width="8" height="1" fill="#c7a073"/><rect x="17" y="41" width="3" height="1" fill="#a18320"/><rect x="20" y="41" width="23" height="1" fill="#854a2a"/><rect x="43" y="41" width="6" height="1" fill="#9c6642"/><rect x="49" y="41" width="3" height="1" fill="#d9c55b"/><rect x="52" y="41" width="2" height="1" fill="#a18320"/><rect x="54" y="41" width="1" height="1" fill="#0a0812"/><rect x="55" y="41" width="2" height="1" fill="#522920"/><rect x="57" y="41" width="1" height="1" fill="#0a0812"/><rect x="2" y="42" width="2" height="1" fill="#533c2a"/><rect x="4" y="42" width="3" height="1" fill="#0a0812"/><rect x="7" y="42" width="6" height="1" fill="#c7a073"/><rect x="13" y="42" width="8" height="1" fill="#9c6642"/><rect x="21" y="42" width="1" height="1" fill="#d9c55b"/><rect x="22" y="42" width="19" height="1" fill="#854a2a"/><rect x="41" y="42" width="1" height="1" fill="#d9c55b"/><rect x="42" y="42" width="8" height="1" fill="#9c6642"/><rect x="50" y="42" width="2" height="1" fill="#613b0c"/><rect x="52" y="42" width="5" height="1" fill="#9c6642"/><rect x="57" y="42" width="3" height="1" fill="#0a0812"/><rect x="2" y="43" width="1" height="1" fill="#533c2a"/><rect x="3" y="43" width="3" height="1" fill="#3d2a22"/><rect x="6" y="43" width="3" height="1" fill="#0a0812"/><rect x="9" y="43" width="11" height="1" fill="#9c6642"/><rect x="20" y="43" width="2" height="1" fill="#d9c55b"/><rect x="22" y="43" width="4" height="1" fill="#9c6642"/><rect x="26" y="43" width="11" height="1" fill="#854a2a"/><rect x="37" y="43" width="3" height="1" fill="#170909"/><rect x="40" y="43" width="2" height="1" fill="#a18320"/><rect x="42" y="43" width="2" height="1" fill="#d9c55b"/><rect x="44" y="43" width="7" height="1" fill="#9c6642"/><rect x="51" y="43" width="2" height="1" fill="#613b0c"/><rect x="53" y="43" width="6" height="1" fill="#9c6642"/><rect x="59" y="43" width="1" height="1" fill="#0a0812"/><rect x="60" y="43" width="2" height="1" fill="#522920"/><rect x="62" y="43" width="1" height="1" fill="#0a0812"/><rect x="2" y="44" width="1" height="1" fill="#533c2a"/><rect x="3" y="44" width="5" height="1" fill="#3d2a22"/><rect x="8" y="44" width="1" height="1" fill="#0a0812"/><rect x="9" y="44" width="2" height="1" fill="#533c2a"/><rect x="11" y="44" width="1" height="1" fill="#0a0812"/><rect x="12" y="44" width="8" height="1" fill="#9c6642"/><rect x="20" y="44" width="2" height="1" fill="#613b0c"/><rect x="22" y="44" width="6" height="1" fill="#9c6642"/><rect x="28" y="44" width="1" height="1" fill="#d9c55b"/><rect x="29" y="44" width="3" height="1" fill="#a18320"/><rect x="32" y="44" width="9" height="1" fill="#170909"/><rect x="41" y="44" width="3" height="1" fill="#a18320"/><rect x="44" y="44" width="1" height="1" fill="#d9c55b"/><rect x="45" y="44" width="6" height="1" fill="#9c6642"/><rect x="51" y="44" width="2" height="1" fill="#613b0c"/><rect x="53" y="44" width="2" height="1" fill="#9c6642"/><rect x="55" y="44" width="6" height="1" fill="#522920"/><rect x="61" y="44" width="1" height="1" fill="#6b3726"/><rect x="62" y="44" width="1" height="1" fill="#0a0812"/><rect x="2" y="45" width="1" height="1" fill="#533c2a"/><rect x="3" y="45" width="2" height="1" fill="#b5a474"/><rect x="5" y="45" width="4" height="1" fill="#3d2a22"/><rect x="9" y="45" width="2" height="1" fill="#b5a474"/><rect x="11" y="45" width="3" height="1" fill="#0a0812"/><rect x="14" y="45" width="6" height="1" fill="#9c6642"/><rect x="20" y="45" width="2" height="1" fill="#613b0c"/><rect x="22" y="45" width="7" height="1" fill="#9c6642"/><rect x="29" y="45" width="4" height="1" fill="#a18320"/><rect x="33" y="45" width="7" height="1" fill="#170909"/><rect x="40" y="45" width="4" height="1" fill="#a18320"/><rect x="44" y="45" width="5" height="1" fill="#9c6642"/><rect x="49" y="45" width="2" height="1" fill="#522920"/><rect x="51" y="45" width="2" height="1" fill="#613b0c"/><rect x="53" y="45" width="3" height="1" fill="#522920"/><rect x="56" y="45" width="6" height="1" fill="#6b3726"/><rect x="62" y="45" width="1" height="1" fill="#0a0812"/><rect x="2" y="46" width="1" height="1" fill="#533c2a"/><rect x="3" y="46" width="2" height="1" fill="#3d2a22"/><rect x="5" y="46" width="2" height="1" fill="#b5a474"/><rect x="7" y="46" width="4" height="1" fill="#3d2a22"/><rect x="11" y="46" width="2" height="1" fill="#b5a474"/><rect x="13" y="46" width="3" height="1" fill="#0a0812"/><rect x="16" y="46" width="5" height="1" fill="#9c6642"/><rect x="21" y="46" width="2" height="1" fill="#613b0c"/><rect x="23" y="46" width="8" height="1" fill="#9c6642"/><rect x="31" y="46" width="4" height="1" fill="#a18320"/><rect x="35" y="46" width="3" height="1" fill="#170909"/><rect x="38" y="46" width="4" height="1" fill="#a18320"/><rect x="42" y="46" width="2" height="1" fill="#9c6642"/><rect x="44" y="46" width="6" height="1" fill="#522920"/><rect x="50" y="46" width="1" height="1" fill="#613b0c"/><rect x="51" y="46" width="11" height="1" fill="#6b3726"/><rect x="62" y="46" width="1" height="1" fill="#0a0812"/><rect x="2" y="47" width="1" height="1" fill="#533c2a"/><rect x="3" y="47" width="2" height="1" fill="#b5a474"/><rect x="5" y="47" width="2" height="1" fill="#3d2a22"/><rect x="7" y="47" width="2" height="1" fill="#b5a474"/><rect x="9" y="47" width="4" height="1" fill="#3d2a22"/><rect x="13" y="47" width="2" height="1" fill="#b5a474"/><rect x="15" y="47" width="3" height="1" fill="#0a0812"/><rect x="18" y="47" width="3" height="1" fill="#9c6642"/><rect x="21" y="47" width="3" height="1" fill="#613b0c"/><rect x="24" y="47" width="8" height="1" fill="#9c6642"/><rect x="32" y="47" width="9" height="1" fill="#a18320"/><rect x="41" y="47" width="4" height="1" fill="#522920"/><rect x="45" y="47" width="17" height="1" fill="#6b3726"/><rect x="62" y="47" width="1" height="1" fill="#0a0812"/><rect x="2" y="48" width="1" height="1" fill="#533c2a"/><rect x="3" y="48" width="2" height="1" fill="#3d2a22"/><rect x="5" y="48" width="2" height="1" fill="#b5a474"/><rect x="7" y="48" width="2" height="1" fill="#3d2a22"/><rect x="9" y="48" width="2" height="1" fill="#b5a474"/><rect x="11" y="48" width="6" height="1" fill="#3d2a22"/><rect x="17" y="48" width="1" height="1" fill="#0a0812"/><rect x="18" y="48" width="2" height="1" fill="#533c2a"/><rect x="20" y="48" width="1" height="1" fill="#0a0812"/><rect x="21" y="48" width="2" height="1" fill="#9c6642"/><rect x="23" y="48" width="2" height="1" fill="#613b0c"/><rect x="25" y="48" width="8" height="1" fill="#9c6642"/><rect x="33" y="48" width="7" height="1" fill="#a18320"/><rect x="40" y="48" width="22" height="1" fill="#6b3726"/><rect x="62" y="48" width="1" height="1" fill="#0a0812"/><rect x="2" y="49" width="3" height="1" fill="#0a0812"/><rect x="5" y="49" width="2" height="1" fill="#3d2a22"/><rect x="7" y="49" width="2" height="1" fill="#b5a474"/><rect x="9" y="49" width="2" height="1" fill="#3d2a22"/><rect x="11" y="49" width="2" height="1" fill="#b5a474"/><rect x="13" y="49" width="5" height="1" fill="#3d2a22"/><rect x="18" y="49" width="2" height="1" fill="#b5a474"/><rect x="20" y="49" width="1" height="1" fill="#0a0812"/><rect x="21" y="49" width="1" height="1" fill="#533c2a"/><rect x="22" y="49" width="1" height="1" fill="#0a0812"/><rect x="23" y="49" width="1" height="1" fill="#9c6642"/><rect x="24" y="49" width="3" height="1" fill="#613b0c"/><rect x="27" y="49" width="7" height="1" fill="#522920"/><rect x="34" y="49" width="28" height="1" fill="#6b3726"/><rect x="62" y="49" width="1" height="1" fill="#0a0812"/><rect x="4" y="50" width="3" height="1" fill="#0a0812"/><rect x="7" y="50" width="2" height="1" fill="#3d2a22"/><rect x="9" y="50" width="2" height="1" fill="#b5a474"/><rect x="11" y="50" width="2" height="1" fill="#3d2a22"/><rect x="13" y="50" width="3" height="1" fill="#b5a474"/><rect x="16" y="50" width="4" height="1" fill="#3d2a22"/><rect x="20" y="50" width="2" height="1" fill="#b5a474"/><rect x="22" y="50" width="5" height="1" fill="#522920"/><rect x="27" y="50" width="2" height="1" fill="#613b0c"/><rect x="29" y="50" width="28" height="1" fill="#6b3726"/><rect x="57" y="50" width="6" height="1" fill="#0a0812"/><rect x="6" y="51" width="4" height="1" fill="#0a0812"/><rect x="10" y="51" width="1" height="1" fill="#3d2a22"/><rect x="11" y="51" width="2" height="1" fill="#b5a474"/><rect x="13" y="51" width="3" height="1" fill="#3d2a22"/><rect x="16" y="51" width="2" height="1" fill="#b5a474"/><rect x="18" y="51" width="4" height="1" fill="#3d2a22"/><rect x="22" y="51" width="1" height="1" fill="#522920"/><rect x="23" y="51" width="30" height="1" fill="#6b3726"/><rect x="53" y="51" width="5" height="1" fill="#0a0812"/><rect x="9" y="52" width="3" height="1" fill="#0a0812"/><rect x="12" y="52" width="1" height="1" fill="#3d2a22"/><rect x="13" y="52" width="3" height="1" fill="#b5a474"/><rect x="16" y="52" width="2" height="1" fill="#3d2a22"/><rect x="18" y="52" width="2" height="1" fill="#b5a474"/><rect x="20" y="52" width="2" height="1" fill="#3d2a22"/><rect x="22" y="52" width="1" height="1" fill="#522920"/><rect x="23" y="52" width="25" height="1" fill="#6b3726"/><rect x="48" y="52" width="6" height="1" fill="#0a0812"/><rect x="11" y="53" width="3" height="1" fill="#0a0812"/><rect x="14" y="53" width="2" height="1" fill="#3d2a22"/><rect x="16" y="53" width="2" height="1" fill="#b5a474"/><rect x="18" y="53" width="2" height="1" fill="#3d2a22"/><rect x="20" y="53" width="2" height="1" fill="#b5a474"/><rect x="22" y="53" width="1" height="1" fill="#522920"/><rect x="23" y="53" width="20" height="1" fill="#6b3726"/><rect x="43" y="53" width="6" height="1" fill="#0a0812"/><rect x="13" y="54" width="3" height="1" fill="#0a0812"/><rect x="16" y="54" width="2" height="1" fill="#3d2a22"/><rect x="18" y="54" width="2" height="1" fill="#b5a474"/><rect x="20" y="54" width="2" height="1" fill="#3d2a22"/><rect x="22" y="54" width="1" height="1" fill="#522920"/><rect x="23" y="54" width="15" height="1" fill="#6b3726"/><rect x="38" y="54" width="6" height="1" fill="#0a0812"/><rect x="15" y="55" width="4" height="1" fill="#0a0812"/><rect x="19" y="55" width="1" height="1" fill="#3d2a22"/><rect x="20" y="55" width="2" height="1" fill="#b5a474"/><rect x="22" y="55" width="1" height="1" fill="#522920"/><rect x="23" y="55" width="11" height="1" fill="#6b3726"/><rect x="34" y="55" width="5" height="1" fill="#0a0812"/><rect x="18" y="56" width="4" height="1" fill="#0a0812"/><rect x="22" y="56" width="1" height="1" fill="#522920"/><rect x="23" y="56" width="6" height="1" fill="#6b3726"/><rect x="29" y="56" width="6" height="1" fill="#0a0812"/><rect x="20" y="57" width="10" height="1" fill="#0a0812"/></svg>