<svg xmlns="http://www.w3.org/2000/svg" width="64" height="64" viewBox="0 0 64 64" shape-rendering="crispEdges"><rect x="29" y="0" width="4" height="1" fill="#29130a"/><rect x="33" y="0" width="1" height="1" fill="#0a0812"/><rect x="28" y="1" width="2" height="1" fill="#29130a"/><rect x="30" y="1" width="3" height="1" fill="#d9c55b"/><rect x="33" y="1" width="2" height="1" fill="#0a0812"/><rect x="27" y="2" width="2" height="1" fill="#29130a"/><rect x="29" y="2" width="5" height="1" fill="#d9c55b"/><rect x="34" y="2" width="2" height="1" fill="#0a0812"/><rect x="23" y="3" width="4" height="1" fill="#381a15"/><rect x="27" y="3" width="1" height="1" fill="#29130a"/><rect x="28" y="3" width="2" height="1" fill="#d9c55b"/><rect x="30" y="3" width="1" height="1" fill="#fffcd6"/><rect x="31" y="3" width="2" height="1" fill="#a18320"/><rect x="33" y="3" width="2" height="1" fill="#d9c55b"/><rect x="35" y="3" width="1" height="1" fill="#0a0812"/><rect x="36" y="3" width="3" height="1" fill="#14032b"/><rect x="39" y="3" width="1" height="1" fill="#0a0812"/><rect x="22" y="4" width="2" height="1" fill="#381a15"/><rect x="24" y="4" width="3" height="1" fill="#c79d69"/><rect x="27" y="4" width="1" height="1" fill="#29130a"/><rect x="28" y="4" width="7" height="1" fill="#a18320"/><rect x="35" y="4" width="1" height="1" fill="#0a0812"/><rect x="36" y="4" width="3" height="1" fill="#c85dde"/><rect x="39" y="4" width="2" height="1" fill="#0a0812"/><rect x="21" y="5" width="2" height="1" fill="#381a15"/><rect x="23" y="5" width="4" height="1" fill="#c79d69"/><rect x="27" y="5" width="3" height="1" fill="#29130a"/><rect x="30" y="5" width="3" height="1" fill="#a18320"/><rect x="33" y="5" width="2" height="1" fill="#29130a"/><rect x="35" y="5" width="1" height="1" fill="#0a0812"/><rect x="36" y="5" width="4" height="1" fill="#c85dde"/><rect x="40" y="5" width="2" height="1" fill="#0a0812"/><rect x="21" y="6" width="1" height="1" fill="#381a15"/><rect x="22" y="6" width="2" height="1" fill="#c79d69"/><rect x="24" y="6" width="1" height="1" fill="#e8d3a2"/><rect x="25" y="6" width="2" height="1" fill="#9c6338"/><rect x="27" y="6" width="2" height="1" fill="#0a0812"/><rect x="29" y="6" width="5" height="1" fill="#29130a"/><rect x="34" y="6" width="2" height="1" fill="#0a0812"/><rect x="36" y="6" width="1" height="1" fill="#ffdbfd"/><rect x="37" y="6" width="2" height="1" fill="#731ba6"/><rect x="39" y="6" width="2" height="1" fill="#c85dde"/><rect x="41" y="6" width="1" height="1" fill="#0a0812"/><rect x="19" y="7" width="4" height="1" fill="#381a15"/><rect x="23" y="7" width="1" height="1" fill="#0a0812"/><rect x="24" y="7" width="4" height="1" fill="#9c6338"/><rect x="28" y="7" width="2" height="1" fill="#0a0812"/><rect x="30" y="7" width="3" height="1" fill="#29130a"/><rect x="33" y="7" width="2" height="1" fill="#0a0812"/><rect x="35" y="7" width="4" height="1" fill="#731ba6"/><rect x="39" y="7" width="4" height="1" fill="#381a15"/><rect x="43" y="7" width="1" height="1" fill="#0a0812"/><rect x="18" y="8" width="2" height="1" fill="#381a15"/><rect x="20" y="8" width="3" height="1" fill="#c79d69"/><rect x="23" y="8" width="2" height="1" fill="#0a0812"/><rect x="25" y="8" width="2" height="1" fill="#9c6338"/><rect x="27" y="8" width="2" height="1" fill="#381a15"/><rect x="29" y="8" width="5" height="1" fill="#0a0812"/><rect x="34" y="8" width="2" height="1" fill="#14032b"/><rect x="36" y="8" width="2" height="1" fill="#731ba6"/><rect x="38" y="8" width="2" height="1" fill="#381a15"/><rect x="40" y="8" width="3" height="1" fill="#c79d69"/><rect x="43" y="8" width="2" height="1" fill="#0a0812"/><rect x="17" y="9" width="2" height="1" fill="#381a15"/><rect x="19" y="9" width="5" height="1" fill="#c79d69"/><rect x="24" y="9" width="2" height="1" fill="#0a0812"/><rect x="26" y="9" width="2" height="1" fill="#381a15"/><rect x="28" y="9" width="2" height="1" fill="#0a0812"/><rect x="33" y="9" width="2" height="1" fill="#0a0812"/><rect x="35" y="9" width="2" height="1" fill="#14032b"/><rect x="37" y="9" width="2" height="1" fill="#381a15"/><rect x="39" y="9" width="5" height="1" fill="#c79d69"/><rect x="44" y="9" width="2" height="1" fill="#0a0812"/><rect x="15" y="10" width="4" height="1" fill="#14032b"/><rect x="19" y="10" width="1" height="1" fill="#0a0812"/><rect x="20" y="10" width="1" height="1" fill="#e8d3a2"/><rect x="21" y="10" width="2" height="1" fill="#9c6338"/><rect x="23" y="10" width="2" height="1" fill="#c79d69"/><rect x="25" y="10" width="1" height="1" fill="#0a0812"/><rect x="26" y="10" width="1" height="1" fill="#381a15"/><rect x="27" y="10" width="2" height="1" fill="#0a0812"/><rect x="34" y="10" width="2" height="1" fill="#0a0812"/><rect x="36" y="10" width="1" height="1" fill="#14032b"/><rect x="37" y="10" width="1" height="1" fill="#381a15"/><rect x="38" y="10" width="2" height="1" fill="#c79d69"/><rect x="40" y="10" width="1" height="1" fill="#e8d3a2"/><rect x="41" y="10" width="2" height="1" fill="#9c6338"/><rect x="43" y="10" width="4" height="1" fill="#381a15"/><rect x="47" y="10" width="1" height="1" fill="#0a0812"/><rect x="14" y="11" width="2" height="1" fill="#14032b"/><rect x="16" y="11" width="3" height="1" fill="#c85dde"/><rect x="19" y="11" width="2" height="1" fill="#0a0812"/><rect x="21" y="11" width="4" height="1" fill="#9c6338"/><rect x="25" y="11" width="3" height="1" fill="#0a0812"/><rect x="35" y="11" width="2" height="1" fill="#0a0812"/><rect x="37" y="11" width="1" height="1" fill="#381a15"/><rect x="38" y="11" width="4" height="1" fill="#9c6338"/><rect x="42" y="11" width="2" height="1" fill="#381a15"/><rect x="44" y="11" width="3" height="1" fill="#c79d69"/><rect x="47" y="11" width="2" height="1" fill="#0a0812"/><rect x="13" y="12" width="2" height="1" fill="#14032b"/><rect x="15" y="12" width="5" height="1" fill="#c85dde"/><rect x="20" y="12" width="2" height="1" fill="#0a0812"/><rect x="22" y="12" width="1" height="1" fill="#9c6338"/><rect x="23" y="12" width="2" height="1" fill="#381a15"/><rect x="25" y="12" width="1" height="1" fill="#0a0812"/><rect x="37" y="12" width="3" height="1" fill="#381a15"/><rect x="40" y="12" width="1" height="1" fill="#9c6338"/><rect x="41" y="12" width="2" height="1" fill="#381a15"/><rect x="43" y="12" width="5" height="1" fill="#c79d69"/><rect x="48" y="12" width="2" height="1" fill="#0a0812"/><rect x="13" y="13" width="1" height="1" fill="#14032b"/><rect x="14" y="13" width="2" height="1" fill="#c85dde"/><rect x="16" y="13" width="1" height="1" fill="#ffdbfd"/><rect x="17" y="13" width="2" height="1" fill="#731ba6"/><rect x="19" y="13" width="2" height="1" fill="#c85dde"/><rect x="21" y="13" width="1" height="1" fill="#0a0812"/><rect x="22" y="13" width="2" height="1" fill="#381a15"/><rect x="24" y="13" width="2" height="1" fill="#0a0812"/><rect x="37" y="13" width="2" height="1" fill="#0a0812"/><rect x="39" y="13" width="3" height="1" fill="#381a15"/><rect x="42" y="13" width="2" height="1" fill="#c79d69"/><rect x="44" y="13" width="1" height="1" fill="#e8d3a2"/><rect x="45" y="13" width="2" height="1" fill="#9c6338"/><rect x="47" y="13" width="2" height="1" fill="#c79d69"/><rect x="49" y="13" width="1" height="1" fill="#0a0812"/><rect x="13" y="14" width="1" height="1" fill="#14032b"/><rect x="14" y="14" width="7" height="1" fill="#731ba6"/><rect x="21" y="14" width="1" height="1" fill="#0a0812"/><rect x="22" y="14" width="1" height="1" fill="#381a15"/><rect x="23" y="14" width="2" height="1" fill="#0a0812"/><rect x="38" y="14" width="2" height="1" fill="#0a0812"/><rect x="40" y="14" width="2" height="1" fill="#381a15"/><rect x="42" y="14" width="7" height="1" fill="#9c6338"/><rect x="49" y="14" width="1" height="1" fill="#0a0812"/><rect x="13" y="15" width="4" height="1" fill="#381a15"/><rect x="17" y="15" width="1" height="1" fill="#0a0812"/><rect x="18" y="15" width="1" height="1" fill="#731ba6"/><rect x="19" y="15" width="2" height="1" fill="#14032b"/><rect x="21" y="15" width="3" height="1" fill="#0a0812"/><rect x="39" y="15" width="2" height="1" fill="#0a0812"/><rect x="41" y="15" width="3" height="1" fill="#381a15"/><rect x="44" y="15" width="2" height="1" fill="#9c6338"/><rect x="46" y="15" width="4" height="1" fill="#381a15"/><rect x="50" y="15" width="1" height="1" fill="#0a0812"/><rect x="12" y="16" width="2" height="1" fill="#381a15"/><rect x="14" y="16" width="3" height="1" fill="#c79d69"/><rect x="17" y="16" width="2" height="1" fill="#0a0812"/><rect x="19" y="16" width="1" height="1" fill="#14032b"/><rect x="20" y="16" width="2" height="1" fill="#0a0812"/><rect x="41" y="16" width="2" height="1" fill="#0a0812"/><rect x="43" y="16" width="4" height="1" fill="#381a15"/><rect x="47" y="16" width="3" height="1" fill="#c79d69"/><rect x="50" y="16" width="2" height="1" fill="#0a0812"/><rect x="11" y="17" width="2" height="1" fill="#381a15"/><rect x="13" y="17" width="5" height="1" fill="#c79d69"/><rect x="18" y="17" width="3" height="1" fill="#0a0812"/><rect x="42" y="17" width="2" height="1" fill="#0a0812"/><rect x="44" y="17" width="2" height="1" fill="#381a15"/><rect x="46" y="17" width="5" height="1" fill="#c79d69"/><rect x="51" y="17" width="2" height="1" fill="#0a0812"/><rect x="11" y="18" width="1" height="1" fill="#381a15"/><rect x="12" y="18" width="2" height="1" fill="#c79d69"/><rect x="14" y="18" width="1" height="1" fill="#e8d3a2"/><rect x="15" y="18" width="2" height="1" fill="#9c6338"/><rect x="17" y="18" width="2" height="1" fill="#c79d69"/><rect x="19" y="18" width="1" height="1" fill="#0a0812"/><rect x="43" y="18" width="1" height="1" fill="#0a0812"/><rect x="44" y="18" width="1" height="1" fill="#381a15"/><rect x="45" y="18" width="2" height="1" fill="#c79d69"/><rect x="47" y="18" width="1" height="1" fill="#e8d3a2"/><rect x="48" y="18" width="2" height="1" fill="#9c6338"/><rect x="50" y="18" width="2" height="1" fill="#c79d69"/><rect x="52" y="18" width="1" height="1" fill="#0a0812"/><rect x="11" y="19" width="4" height="1" fill="#381a15"/><rect x="15" y="19" width="1" height="1" fill="#0a0812"/><rect x="16" y="19" width="3" height="1" fill="#9c6338"/><rect x="19" y="19" width="1" height="1" fill="#0a0812"/><rect x="44" y="19" width="1" height="1" fill="#381a15"/><rect x="45" y="19" width="2" height="1" fill="#9c6338"/><rect x="47" y="19" width="4" height="1" fill="#381a15"/><rect x="51" y="19" width="2" height="1" fill="#0a0812"/><rect x="10" y="20" width="2" height="1" fill="#381a15"/><rect x="12" y="20" width="3" height="1" fill="#c79d69"/><rect x="15" y="20" width="2" height="1" fill="#0a0812"/><rect x="17" y="20" width="2" height="1" fill="#381a15"/><rect x="19" y="20" width="1" height="1" fill="#0a0812"/><rect x="44" y="20" width="4" height="1" fill="#381a15"/><rect x="48" y="20" width="3" height="1" fill="#c79d69"/><rect x="51" y="20" width="2" height="1" fill="#0a0812"/><rect x="9" y="21" width="2" height="1" fill="#381a15"/><rect x="11" y="21" width="5" height="1" fill="#c79d69"/><rect x="16" y="21" width="4" height="1" fill="#0a0812"/><rect x="44" y="21" width="3" height="1" fill="#381a15"/><rect x="47" y="21" width="5" height="1" fill="#c79d69"/><rect x="52" y="21" width="2" height="1" fill="#0a0812"/><rect x="9" y="22" width="1" height="1" fill="#381a15"/><rect x="10" y="22" width="2" height="1" fill="#c79d69"/><rect x="12" y="22" width="1" height="1" fill="#e8d3a2"/><rect x="13" y="22" width="2" height="1" fill="#9c6338"/><rect x="15" y="22" width="2" height="1" fill="#c79d69"/><rect x="17" y="22" width="2" height="1" fill="#0a0812"/><rect x="45" y="22" width="1" height="1" fill="#381a15"/><rect x="46" y="22" width="2" height="1" fill="#c79d69"/><rect x="48" y="22" width="1" height="1" fill="#e8d3a2"/><rect x="49" y="22" width="2" height="1" fill="#9c6338"/><rect x="51" y="22" width="2" height="1" fill="#c79d69"/><rect x="53" y="22" width="1" height="1" fill="#0a0812"/><rect x="9" y="23" width="1" height="1" fill="#381a15"/><rect x="10" y="23" width="7" height="1" fill="#9c6338"/><rect x="17" y="23" width="1" height="1" fill="#0a0812"/><rect x="45" y="23" width="1" height="1" fill="#381a15"/><rect x="46" y="23" width="7" height="1" fill="#9c6338"/><rect x="53" y="23" width="1" height="1" fill="#0a0812"/><rect x="9" y="24" width="6" height="1" fill="#381a15"/><rect x="15" y="24" width="3" height="1" fill="#0a0812"/><rect x="45" y="24" width="2" height="1" fill="#381a15"/><rect x="47" y="24" width="4" height="1" fill="#14032b"/><rect x="51" y="24" width="3" height="1" fill="#0a0812"/><rect x="9" y="25" width="3" height="1" fill="#381a15"/><rect x="12" y="25" width="3" height="1" fill="#c79d69"/><rect x="15" y="25" width="3" height="1" fill="#0a0812"/><rect x="45" y="25" width="1" height="1" fill="#0a0812"/><rect x="46" y="25" width="2" height="1" fill="#14032b"/><rect x="48" y="25" width="3" height="1" fill="#c85dde"/><rect x="51" y="25" width="3" height="1" fill="#0a0812"/><rect x="9" y="26" width="2" height="1" fill="#381a15"/><rect x="11" y="26" width="5" height="1" fill="#c79d69"/><rect x="16" y="26" width="2" height="1" fill="#0a0812"/><rect x="45" y="26" width="2" height="1" fill="#14032b"/><rect x="47" y="26" width="5" height="1" fill="#c85dde"/><rect x="52" y="26" width="2" height="1" fill="#0a0812"/><rect x="9" y="27" width="1" height="1" fill="#381a15"/><rect x="10" y="27" width="2" height="1" fill="#c79d69"/><rect x="12" y="27" width="1" height="1" fill="#e8d3a2"/><rect x="13" y="27" width="2" height="1" fill="#9c6338"/><rect x="15" y="27" width="2" height="1" fill="#c79d69"/><rect x="17" y="27" width="1" height="1" fill="#0a0812"/><rect x="45" y="27" width="1" height="1" fill="#14032b"/><rect x="46" y="27" width="2" height="1" fill="#c85dde"/><rect x="48" y="27" width="1" height="1" fill="#ffdbfd"/><rect x="49" y="27" width="2" height="1" fill="#731ba6"/><rect x="51" y="27" width="2" height="1" fill="#c85dde"/><rect x="53" y="27" width="1" height="1" fill="#0a0812"/><rect x="9" y="28" width="1" height="1" fill="#381a15"/><rect x="10" y="28" width="7" height="1" fill="#9c6338"/><rect x="17" y="28" width="1" height="1" fill="#0a0812"/><rect x="45" y="28" width="1" height="1" fill="#14032b"/><rect x="46" y="28" width="7" height="1" fill="#731ba6"/><rect x="53" y="28" width="1" height="1" fill="#0a0812"/><rect x="9" y="29" width="6" height="1" fill="#381a15"/><rect x="15" y="29" width="3" height="1" fill="#0a0812"/><rect x="45" y="29" width="2" height="1" fill="#14032b"/><rect x="47" y="29" width="4" height="1" fill="#381a15"/><rect x="51" y="29" width="3" height="1" fill="#0a0812"/><rect x="9" y="30" width="3" height="1" fill="#381a15"/><rect x="12" y="30" width="3" height="1" fill="#c79d69"/><rect x="15" y="30" width="3" height="1" fill="#0a0812"/><rect x="45" y="30" width="1" height="1" fill="#0a0812"/><rect x="46" y="30" width="2" height="1" fill="#381a15"/><rect x="48" y="30" width="3" height="1" fill="#c79d69"/><rect x="51" y="30" width="3" height="1" fill="#0a0812"/><rect x="9" y="31" width="2" height="1" fill="#381a15"/><rect x="11" y="31" width="5" height="1" fill="#c79d69"/><rect x="16" y="31" width="2" height="1" fill="#0a0812"/><rect x="45" y="31" width="2" height="1" fill="#381a15"/><rect x="47" y="31" width="5" height="1" fill="#c79d69"/><rect x="52" y="31" width="2" height="1" fill="#0a0812"/><rect x="9" y="32" width="1" height="1" fill="#381a15"/><rect x="10" y="32" width="2" height="1" fill="#c79d69"/><rect x="12" y="32" width="1" height="1" fill="#e8d3a2"/><rect x="13" y="32" width="2" height="1" fill="#9c6338"/><rect x="15" y="32" width="2" height="1" fill="#c79d69"/><rect x="17" y="32" width="1" height="1" fill="#0a0812"/><rect x="45" y="32" width="1" height="1" fill="#381a15"/><rect x="46" y="32" width="2" height="1" fill="#c79d69"/><rect x="48" y="32" width="1" height="1" fill="#e8d3a2"/><rect x="49" y="32" width="2" height="1" fill="#9c6338"/><rect x="51" y="32" width="2" height="1" fill="#c79d69"/><rect x="53" y="32" width="1" height="1" fill="#0a0812"/><rect x="9" y="33" width="1" height="1" fill="#381a15"/><rect x="10" y="33" width="7" height="1" fill="#9c6338"/><rect x="17" y="33" width="1" height="1" fill="#0a0812"/><rect x="45" y="33" width="1" height="1" fill="#381a15"/><rect x="46" y="33" width="7" height="1" fill="#9c6338"/><rect x="53" y="33" width="1" height="1" fill="#0a0812"/><rect x="9" y="34" width="3" height="1" fill="#381a15"/><rect x="12" y="34" width="3" height="1" fill="#9c6338"/><rect x="15" y="34" width="2" height="1" fill="#381a15"/><rect x="17" y="34" width="1" height="1" fill="#0a0812"/><rect x="45" y="34" width="3" height="1" fill="#381a15"/><rect x="48" y="34" width="3" height="1" fill="#9c6338"/><rect x="51" y="34" width="2" height="1" fill="#381a15"/><rect x="53" y="34" width="1" height="1" fill="#0a0812"/><rect x="9" y="35" width="2" height="1" fill="#0a0812"/><rect x="11" y="35" width="5" height="1" fill="#381a15"/><rect x="16" y="35" width="2" height="1" fill="#0a0812"/><rect x="45" y="35" width="2" height="1" fill="#0a0812"/><rect x="47" y="35" width="5" height="1" fill="#381a15"/><rect x="52" y="35" width="2" height="1" fill="#0a0812"/><rect x="10" y="36" width="2" height="1" fill="#0a0812"/><rect x="12" y="36" width="3" height="1" fill="#381a15"/><rect x="15" y="36" width="2" height="1" fill="#0a0812"/><rect x="46" y="36" width="2" height="1" fill="#0a0812"/><rect x="48" y="36" width="3" height="1" fill="#381a15"/><rect x="51" y="36" width="2" height="1" fill="#0a0812"/><rect x="11" y="37" width="5" height="1" fill="#0a0812"/><rect x="47" y="37" width="5" height="1" fill="#0a0812"/><rect x="15" y="38" width="4" height="1" fill="#211112"/><rect x="19" y="38" width="4" height="1" fill="#381a15"/><rect x="23" y="38" width="1" height="1" fill="#0a0812"/><rect x="39" y="38" width="4" height="1" fill="#381a15"/><rect x="43" y="38" width="1" height="1" fill="#0a0812"/><rect x="45" y="38" width="4" height="1" fill="#211112"/><rect x="15" y="39" width="3" height="1" fill="#211112"/><rect x="18" y="39" width="2" height="1" fill="#381a15"/><rect x="20" y="39" width="3" height="1" fill="#c79d69"/><rect x="23" y="39" width="2" height="1" fill="#0a0812"/><rect x="38" y="39" width="2" height="1" fill="#381a15"/><rect x="40" y="39" width="3" height="1" fill="#c79d69"/><rect x="43" y="39" width="2" height="1" fill="#0a0812"/><rect x="45" y="39" width="4" height="1" fill="#211112"/><rect x="17" y="40" width="2" height="1" fill="#381a15"/><rect x="19" y="40" width="5" height="1" fill="#c79d69"/><rect x="24" y="40" width="2" height="1" fill="#0a0812"/><rect x="37" y="40" width="2" height="1" fill="#381a15"/><rect x="39" y="40" width="5" height="1" fill="#c79d69"/><rect x="44" y="40" width="2" height="1" fill="#0a0812"/><rect x="17" y="41" width="1" height="1" fill="#381a15"/><rect x="18" y="41" width="2" height="1" fill="#c79d69"/><rect x="20" y="41" width="1" height="1" fill="#e8d3a2"/><rect x="21" y="41" width="2" height="1" fill="#9c6338"/><rect x="23" y="41" width="2" height="1" fill="#c79d69"/><rect x="25" y="41" width="1" height="1" fill="#0a0812"/><rect x="29" y="41" width="4" height="1" fill="#29130a"/><rect x="33" y="41" width="1" height="1" fill="#0a0812"/><rect x="37" y="41" width="1" height="1" fill="#381a15"/><rect x="38" y="41" width="2" height="1" fill="#c79d69"/><rect x="40" y="41" width="1" height="1" fill="#e8d3a2"/><rect x="41" y="41" width="2" height="1" fill="#9c6338"/><rect x="43" y="41" width="2" height="1" fill="#c79d69"/><rect x="45" y="41" width="1" height="1" fill="#0a0812"/><rect x="17" y="42" width="1" height="1" fill="#381a15"/><rect x="18" y="42" width="7" height="1" fill="#9c6338"/><rect x="25" y="42" width="1" height="1" fill="#0a0812"/><rect x="26" y="42" width="2" height="1" fill="#211112"/><rect x="28" y="42" width="2" height="1" fill="#29130a"/><rect x="30" y="42" width="3" height="1" fill="#d9c55b"/><rect x="33" y="42" width="2" height="1" fill="#0a0812"/><rect x="36" y="42" width="1" height="1" fill="#211112"/><rect x="37" y="42" width="1" height="1" fill="#381a15"/><rect x="38" y="42" width="7" height="1" fill="#9c6338"/><rect x="45" y="42" width="1" height="1" fill="#0a0812"/><rect x="17" y="43" width="3" height="1" fill="#381a15"/><rect x="20" y="43" width="3" height="1" fill="#9c6338"/><rect x="23" y="43" width="2" height="1" fill="#381a15"/><rect x="25" y="43" width="1" height="1" fill="#0a0812"/><rect x="26" y="43" width="1" height="1" fill="#211112"/><rect x="27" y="43" width="2" height="1" fill="#29130a"/><rect x="29" y="43" width="5" height="1" fill="#d9c55b"/><rect x="34" y="43" width="2" height="1" fill="#0a0812"/><rect x="36" y="43" width="1" height="1" fill="#211112"/><rect x="37" y="43" width="3" height="1" fill="#381a15"/><rect x="40" y="43" width="3" height="1" fill="#9c6338"/><rect x="43" y="43" width="2" height="1" fill="#381a15"/><rect x="45" y="43" width="1" height="1" fill="#0a0812"/><rect x="17" y="44" width="2" height="1" fill="#0a0812"/><rect x="19" y="44" width="5" height="1" fill="#381a15"/><rect x="24" y="44" width="2" height="1" fill="#0a0812"/><rect x="27" y="44" width="1" height="1" fill="#29130a"/><rect x="28" y="44" width="2" height="1" fill="#d9c55b"/><rect x="30" y="44" width="1" height="1" fill="#fffcd6"/><rect x="31" y="44" width="2" height="1" fill="#a18320"/><rect x="33" y="44" width="2" height="1" fill="#d9c55b"/><rect x="35" y="44" width="1" height="1" fill="#0a0812"/><rect x="36" y="44" width="1" height="1" fill="#211112"/><rect x="37" y="44" width="2" height="1" fill="#0a0812"/><rect x="39" y="44" width="5" height="1" fill="#381a15"/><rect x="44" y="44" width="2" height="1" fill="#0a0812"/><rect x="18" y="45" width="2" height="1" fill="#0a0812"/><rect x="20" y="45" width="3" height="1" fill="#381a15"/><rect x="23" y="45" width="2" height="1" fill="#0a0812"/><rect x="27" y="45" width="8" height="1" fill="#45270b"/><rect x="35" y="45" width="1" height="1" fill="#0a0812"/><rect x="38" y="45" width="2" height="1" fill="#0a0812"/><rect x="40" y="45" width="3" height="1" fill="#381a15"/><rect x="43" y="45" width="2" height="1" fill="#0a0812"/><rect x="19" y="46" width="5" height="1" fill="#0a0812"/><rect x="27" y="46" width="1" height="1" fill="#45270b"/><rect x="28" y="46" width="6" height="1" fill="#fffcd6"/><rect x="34" y="46" width="1" height="1" fill="#29130a"/><rect x="35" y="46" width="1" height="1" fill="#0a0812"/><rect x="39" y="46" width="5" height="1" fill="#0a0812"/><rect x="27" y="47" width="1" height="1" fill="#45270b"/><rect x="28" y="47" width="2" height="1" fill="#fffcd6"/><rect x="30" y="47" width="1" height="1" fill="#d9c55b"/><rect x="31" y="47" width="1" height="1" fill="#170909"/><rect x="32" y="47" width="2" height="1" fill="#a18320"/><rect x="34" y="47" width="1" height="1" fill="#29130a"/><rect x="35" y="47" width="1" height="1" fill="#0a0812"/><rect x="27" y="48" width="1" height="1" fill="#45270b"/><rect x="28" y="48" width="2" height="1" fill="#fffcd6"/><rect x="30" y="48" width="1" height="1" fill="#d9c55b"/><rect x="31" y="48" width="1" height="1" fill="#170909"/><rect x="32" y="48" width="2" height="1" fill="#a18320"/><rect x="34" y="48" width="1" height="1" fill="#29130a"/><rect x="35" y="48" width="1" height="1" fill="#0a0812"/><rect x="27" y="49" width="1" height="1" fill="#45270b"/><rect x="28" y="49" width="2" height="1" fill="#fffcd6"/><rect x="30" y="49" width="1" height="1" fill="#d9c55b"/><rect x="31" y="49" width="1" height="1" fill="#170909"/><rect x="32" y="49" width="2" height="1" fill="#a18320"/><rect x="34" y="49" width="1" height="1" fill="#29130a"/><rect x="35" y="49" width="1" height="1" fill="#0a0812"/><rect x="27" y="50" width="1" height="1" fill="#45270b"/><rect x="28" y="50" width="2" height="1" fill="#fffcd6"/><rect x="30" y="50" width="1" height="1" fill="#d9c55b"/><rect x="31" y="50" width="1" height="1" fill="#170909"/><rect x="32" y="50" width="2" height="1" fill="#a18320"/><rect x="34" y="50" width="1" height="1" fill="#29130a"/><rect x="35" y="50" width="1" height="1" fill="#0a0812"/><rect x="21" y="51" width="7" height="1" fill="#45270b"/><rect x="28" y="51" width="1" height="1" fill="#fffcd6"/><rect x="29" y="51" width="1" height="1" fill="#a18320"/><rect x="30" y="51" width="1" height="1" fill="#d9c55b"/><rect x="31" y="51" width="1" height="1" fill="#170909"/><rect x="32" y="51" width="2" height="1" fill="#a18320"/><rect x="34" y="51" width="1" height="1" fill="#29130a"/><rect x="35" y="51" width="1" height="1" fill="#0a0812"/><rect x="36" y="51" width="5" height="1" fill="#45270b"/><rect x="41" y="51" width="1" height="1" fill="#0a0812"/><rect x="21" y="52" width="1" height="1" fill="#45270b"/><rect x="22" y="52" width="6" height="1" fill="#fffcd6"/><rect x="28" y="52" width="2" height="1" fill="#a18320"/><rect x="30" y="52" width="1" height="1" fill="#d9c55b"/><rect x="31" y="52" width="1" height="1" fill="#170909"/><rect x="32" y="52" width="3" height="1" fill="#a18320"/><rect x="35" y="52" width="5" height="1" fill="#fffcd6"/><rect x="40" y="52" width="1" height="1" fill="#29130a"/><rect x="41" y="52" width="1" height="1" fill="#0a0812"/><rect x="21" y="53" width="1" height="1" fill="#45270b"/><rect x="22" y="53" width="1" height="1" fill="#fffcd6"/><rect x="23" y="53" width="17" height="1" fill="#d9c55b"/><rect x="40" y="53" width="1" height="1" fill="#29130a"/><rect x="41" y="53" width="1" height="1" fill="#0a0812"/><rect x="21" y="54" width="1" height="1" fill="#45270b"/><rect x="22" y="54" width="1" height="1" fill="#fffcd6"/><rect x="23" y="54" width="7" height="1" fill="#170909"/><rect x="30" y="54" width="1" height="1" fill="#d9c55b"/><rect x="31" y="54" width="9" height="1" fill="#170909"/><rect x="40" y="54" width="1" height="1" fill="#29130a"/><rect x="41" y="54" width="1" height="1" fill="#0a0812"/><rect x="21" y="55" width="1" height="1" fill="#45270b"/><rect x="22" y="55" width="1" height="1" fill="#fffcd6"/><rect x="23" y="55" width="7" height="1" fill="#a18320"/><rect x="30" y="55" width="1" height="1" fill="#d9c55b"/><rect x="31" y="55" width="1" height="1" fill="#170909"/><rect x="32" y="55" width="8" height="1" fill="#a18320"/><rect x="40" y="55" width="1" height="1" fill="#29130a"/><rect x="41" y="55" width="1" height="1" fill="#0a0812"/><rect x="21" y="56" width="1" height="1" fill="#45270b"/><rect x="22" y="56" width="1" height="1" fill="#fffcd6"/><rect x="23" y="56" width="7" height="1" fill="#a18320"/><rect x="30" y="56" width="1" height="1" fill="#d9c55b"/><rect x="31" y="56" width="1" height="1" fill="#170909"/><rect x="32" y="56" width="8" height="1" fill="#a18320"/><rect x="40" y="56" width="1" height="1" fill="#29130a"/><rect x="41" y="56" width="1" height="1" fill="#0a0812"/><rect x="21" y="57" width="1" height="1" fill="#45270b"/><rect x="22" y="57" width="6" height="1" fill="#29130a"/><rect x="28" y="57" width="2" height="1" fill="#a18320"/><rect x="30" y="57" width="1" height="1" fill="#d9c55b"/><rect x="31" y="57" width="1" height="1" fill="#170909"/><rect x="32" y="57" width="3" height="1" fill="#a18320"/><rect x="35" y="57" width="6" height="1" fill="#29130a"/><rect x="41" y="57" width="1" height="1" fill="#0a0812"/><rect x="21" y="58" width="7" height="1" fill="#0a0812"/><rect x="28" y="58" width="1" height="1" fill="#fffcd6"/><rect x="29" y="58" width="1" height="1" fill="#a18320"/><rect x="30" y="58" width="1" height="1" fill="#d9c55b"/><rect x="31" y="58" width="1" height="1" fill="#170909"/><rect x="32" y="58" width="2" height="1" fill="#a18320"/><rect x="34" y="58" width="1" height="1" fill="#29130a"/><rect x="35" y="58" width="7" height="1" fill="#0a0812"/><rect x="27" y="59" width="1" height="1" fill="#45270b"/><rect x="28" y="59" width="1" height="1" fill="#fffcd6"/><rect x="29" y="59" width="1" height="1" fill="#a18320"/><rect x="30" y="59" width="1" height="1" fill="#d9c55b"/><rect x="31" y="59" width="1" height="1" fill="#170909"/><rect x="32" y="59" width="2" height="1" fill="#a18320"/><rect x="34" y="59" width="1" height="1" fill="#29130a"/><rect x="35" y="59" width="1" height="1" fill="#0a0812"/><rect x="27" y="60" width="1" height="1" fill="#45270b"/><rect x="28" y="60" width="1" height="1" fill="#fffcd6"/><rect x="29" y="60" width="1" height="1" fill="#a18320"/><rect x="30" y="60" width="1" height="1" fill="#d9c55b"/><rect x="31" y="60" width="1" height="1" fill="#170909"/><rect x="32" y="60" width="2" height="1" fill="#a18320"/><rect x="34" y="60" width="1" height="1" fill="#29130a"/><rect x="35" y="60" width="1" height="1" fill="#0a0812"/><rect x="27" y="61" width="1" height="1" fill="#45270b"/><rect x="28" y="61" width="7" height="1" fill="#29130a"/><rect x="35" y="61" width="1" height="1" fill="#0a0812"/><rect x="27" y="62" width="9" height="1" fill="#0a0812"/></svg>