<svg xmlns="http://www.w3.org/2000/svg" width="64" height="64" viewBox="0 0 64 64" shape-rendering="crispEdges"><rect x="26" y="4" width="1" height="1" fill="#fff5db"/><rect x="30" y="6" width="1" height="1" fill="#2b0803"/><rect x="29" y="7" width="3" height="1" fill="#2b0803"/><rect x="29" y="8" width="3" height="1" fill="#2b0803"/><rect x="38" y="8" width="1" height="1" fill="#dead67"/><rect x="21" y="9" width="1" height="1" fill="#dead67"/><rect x="28" y="9" width="5" height="1" fill="#2b0803"/><rect x="28" y="10" width="2" height="1" fill="#2b0803"/><rect x="30" y="10" width="1" height="1" fill="#632106"/><rect x="31" y="10" width="3" height="1" fill="#2b0803"/><rect x="27" y="11" width="3" height="1" fill="#2b0803"/><rect x="30" y="11" width="2" height="1" fill="#632106"/><rect x="32" y="11" width="2" height="1" fill="#2b0803"/><rect x="26" y="12" width="3" height="1" fill="#2b0803"/><rect x="29" y="12" width="3" height="1" fill="#632106"/><rect x="32" y="12" width="3" height="1" fill="#2b0803"/><rect x="26" y="13" width="3" height="1" fill="#2b0803"/><rect x="29" y="13" width="4" height="1" fill="#632106"/><rect x="33" y="13" width="3" height="1" fill="#2b0803"/><rect x="25" y="14" width="3" height="1" fill="#2b0803"/><rect x="28" y="14" width="5" height="1" fill="#632106"/><rect x="33" y="14" width="3" height="1" fill="#2b0803"/><rect x="18" y="15" width="1" height="1" fill="#fff5db"/><rect x="25" y="15" width="3" height="1" fill="#2b0803"/><rect x="28" y="15" width="2" height="1" fill="#632106"/><rect x="30" y="15" width="1" height="1" fill="#a6571b"/><rect x="31" y="15" width="3" height="1" fill="#632106"/><rect x="34" y="15" width="3" height="1" fill="#2b0803"/><rect x="24" y="16" width="3" height="1" fill="#2b0803"/><rect x="27" y="16" width="3" height="1" fill="#632106"/><rect x="30" y="16" width="2" height="1" fill="#a6571b"/><rect x="32" y="16" width="3" height="1" fill="#632106"/><rect x="35" y="16" width="3" height="1" fill="#2b0803"/><rect x="44" y="16" width="1" height="1" fill="#dead67"/><rect x="24" y="17" width="3" height="1" fill="#2b0803"/><rect x="27" y="17" width="2" height="1" fill="#632106"/><rect x="29" y="17" width="3" height="1" fill="#a6571b"/><rect x="32" y="17" width="3" height="1" fill="#632106"/><rect x="35" y="17" width="3" height="1" fill="#2b0803"/><rect x="23" y="18" width="4" height="1" fill="#2b0803"/><rect x="27" y="18" width="2" height="1" fill="#632106"/><rect x="29" y="18" width="4" height="1" fill="#a6571b"/><rect x="33" y="18" width="3" height="1" fill="#632106"/><rect x="36" y="18" width="3" height="1" fill="#2b0803"/><rect x="23" y="19" width="3" height="1" fill="#2b0803"/><rect x="26" y="19" width="2" height="1" fill="#632106"/><rect x="28" y="19" width="5" height="1" fill="#a6571b"/><rect x="33" y="19" width="3" height="1" fill="#632106"/><rect x="36" y="19" width="3" height="1" fill="#2b0803"/><rect x="23" y="20" width="3" height="1" fill="#2b0803"/><rect x="26" y="20" width="2" height="1" fill="#632106"/><rect x="28" y="20" width="6" height="1" fill="#a6571b"/><rect x="34" y="20" width="3" height="1" fill="#632106"/><rect x="37" y="20" width="3" height="1" fill="#2b0803"/><rect x="22" y="21" width="3" height="1" fill="#2b0803"/><rect x="25" y="21" width="3" height="1" fill="#632106"/><rect x="28" y="21" width="2" height="1" fill="#a6571b"/><rect x="30" y="21" width="1" height="1" fill="#dea65d"/><rect x="31" y="21" width="3" height="1" fill="#a6571b"/><rect x="34" y="21" width="3" height="1" fill="#632106"/><rect x="37" y="21" width="3" height="1" fill="#2b0803"/><rect x="16" y="22" width="1" height="1" fill="#dead67"/><rect x="22" y="22" width="3" height="1" fill="#2b0803"/><rect x="25" y="22" width="2" height="1" fill="#632106"/><rect x="27" y="22" width="2" height="1" fill="#a6571b"/><rect x="29" y="22" width="2" height="1" fill="#dea65d"/><rect x="31" y="22" width="4" height="1" fill="#a6571b"/><rect x="35" y="22" width="2" height="1" fill="#632106"/><rect x="37" y="22" width="3" height="1" fill="#2b0803"/><rect x="21" y="23" width="3" height="1" fill="#2b0803"/><rect x="24" y="23" width="3" height="1" fill="#632106"/><rect x="27" y="23" width="2" height="1" fill="#a6571b"/><rect x="29" y="23" width="3" height="1" fill="#dea65d"/><rect x="32" y="23" width="3" height="1" fill="#a6571b"/><rect x="35" y="23" width="3" height="1" fill="#632106"/><rect x="38" y="23" width="2" height="1" fill="#2b0803"/><rect x="21" y="24" width="3" height="1" fill="#2b0803"/><rect x="24" y="24" width="2" height="1" fill="#632106"/><rect x="26" y="24" width="2" height="1" fill="#a6571b"/><rect x="28" y="24" width="4" height="1" fill="#dea65d"/><rect x="32" y="24" width="3" height="1" fill="#a6571b"/><rect x="35" y="24" width="3" height="1" fill="#632106"/><rect x="38" y="24" width="3" height="1" fill="#2b0803"/><rect x="42" y="24" width="1" height="1" fill="#fff5db"/><rect x="20" y="25" width="3" height="1" fill="#2b0803"/><rect x="23" y="25" width="3" height="1" fill="#632106"/><rect x="26" y="25" width="2" height="1" fill="#a6571b"/><rect x="28" y="25" width="5" height="1" fill="#dea65d"/><rect x="33" y="25" width="2" height="1" fill="#a6571b"/><rect x="35" y="25" width="3" height="1" fill="#632106"/><rect x="38" y="25" width="3" height="1" fill="#2b0803"/><rect x="20" y="26" width="3" height="1" fill="#2b0803"/><rect x="23" y="26" width="2" height="1" fill="#632106"/><rect x="25" y="26" width="2" height="1" fill="#a6571b"/><rect x="27" y="26" width="6" height="1" fill="#dea65d"/><rect x="33" y="26" width="2" height="1" fill="#a6571b"/><rect x="35" y="26" width="3" height="1" fill="#632106"/><rect x="38" y="26" width="3" height="1" fill="#2b0803"/><rect x="20" y="27" width="3" height="1" fill="#2b0803"/><rect x="23" y="27" width="2" height="1" fill="#632106"/><rect x="25" y="27" width="2" height="1" fill="#a6571b"/><rect x="27" y="27" width="3" height="1" fill="#dea65d"/><rect x="30" y="27" width="1" height="1" fill="#fff5db"/><rect x="31" y="27" width="3" height="1" fill="#dea65d"/><rect x="34" y="27" width="1" height="1" fill="#a6571b"/><rect x="35" y="27" width="3" height="1" fill="#632106"/><rect x="38" y="27" width="3" height="1" fill="#2b0803"/><rect x="20" y="28" width="3" height="1" fill="#2b0803"/><rect x="23" y="28" width="2" height="1" fill="#632106"/><rect x="25" y="28" width="2" height="1" fill="#a6571b"/><rect x="27" y="28" width="2" height="1" fill="#dea65d"/><rect x="29" y="28" width="2" height="1" fill="#fff5db"/><rect x="31" y="28" width="3" height="1" fill="#dea65d"/><rect x="34" y="28" width="2" height="1" fill="#a6571b"/><rect x="36" y="28" width="2" height="1" fill="#632106"/><rect x="38" y="28" width="4" height="1" fill="#2b0803"/><rect x="20" y="29" width="2" height="1" fill="#2b0803"/><rect x="22" y="29" width="3" height="1" fill="#632106"/><rect x="25" y="29" width="2" height="1" fill="#a6571b"/><rect x="27" y="29" width="2" height="1" fill="#dea65d"/><rect x="29" y="29" width="2" height="1" fill="#fff5db"/><rect x="31" y="29" width="3" height="1" fill="#dea65d"/><rect x="34" y="29" width="2" height="1" fill="#a6571b"/><rect x="36" y="29" width="3" height="1" fill="#632106"/><rect x="39" y="29" width="3" height="1" fill="#2b0803"/><rect x="47" y="29" width="1" height="1" fill="#dead67"/><rect x="19" y="30" width="3" height="1" fill="#2b0803"/><rect x="22" y="30" width="3" height="1" fill="#632106"/><rect x="25" y="30" width="1" height="1" fill="#a6571b"/><rect x="26" y="30" width="2" height="1" fill="#dea65d"/><rect x="28" y="30" width="4" height="1" fill="#fff5db"/><rect x="32" y="30" width="2" height="1" fill="#dea65d"/><rect x="34" y="30" width="2" height="1" fill="#a6571b"/><rect x="36" y="30" width="3" height="1" fill="#632106"/><rect x="39" y="30" width="3" height="1" fill="#2b0803"/><rect x="19" y="31" width="3" height="1" fill="#2b0803"/><rect x="22" y="31" width="3" height="1" fill="#632106"/><rect x="25" y="31" width="1" height="1" fill="#a6571b"/><rect x="26" y="31" width="2" height="1" fill="#dea65d"/><rect x="28" y="31" width="4" height="1" fill="#fff5db"/><rect x="32" y="31" width="2" height="1" fill="#dea65d"/><rect x="34" y="31" width="2" height="1" fill="#a6571b"/><rect x="36" y="31" width="3" height="1" fill="#632106"/><rect x="39" y="31" width="3" height="1" fill="#2b0803"/><rect x="19" y="32" width="3" height="1" fill="#2b0803"/><rect x="22" y="32" width="2" height="1" fill="#632106"/><rect x="24" y="32" width="2" height="1" fill="#a6571b"/><rect x="26" y="32" width="2" height="1" fill="#dea65d"/><rect x="28" y="32" width="4" height="1" fill="#fff5db"/><rect x="32" y="32" width="2" height="1" fill="#dea65d"/><rect x="34" y="32" width="2" height="1" fill="#a6571b"/><rect x="36" y="32" width="3" height="1" fill="#632106"/><rect x="39" y="32" width="2" height="1" fill="#2b0803"/><rect x="12" y="33" width="1" height="1" fill="#dead67"/><rect x="19" y="33" width="3" height="1" fill="#2b0803"/><rect x="22" y="33" width="2" height="1" fill="#632106"/><rect x="24" y="33" width="2" height="1" fill="#a6571b"/><rect x="26" y="33" width="2" height="1" fill="#dea65d"/><rect x="28" y="33" width="4" height="1" fill="#fff5db"/><rect x="32" y="33" width="1" height="1" fill="#dea65d"/><rect x="33" y="33" width="3" height="1" fill="#a6571b"/><rect x="36" y="33" width="2" height="1" fill="#632106"/><rect x="38" y="33" width="3" height="1" fill="#2b0803"/><rect x="19" y="34" width="2" height="1" fill="#2b0803"/><rect x="21" y="34" width="3" height="1" fill="#632106"/><rect x="24" y="34" width="2" height="1" fill="#a6571b"/><rect x="26" y="34" width="2" height="1" fill="#dea65d"/><rect x="28" y="34" width="4" height="1" fill="#fff5db"/><rect x="32" y="34" width="1" height="1" fill="#dea65d"/><rect x="33" y="34" width="2" height="1" fill="#a6571b"/><rect x="35" y="34" width="3" height="1" fill="#632106"/><rect x="38" y="34" width="3" height="1" fill="#2b0803"/><rect x="19" y="35" width="2" height="1" fill="#2b0803"/><rect x="21" y="35" width="3" height="1" fill="#632106"/><rect x="24" y="35" width="3" height="1" fill="#a6571b"/><rect x="27" y="35" width="2" height="1" fill="#dea65d"/><rect x="29" y="35" width="2" height="1" fill="#fff5db"/><rect x="31" y="35" width="2" height="1" fill="#dea65d"/><rect x="33" y="35" width="2" height="1" fill="#a6571b"/><rect x="35" y="35" width="3" height="1" fill="#632106"/><rect x="38" y="35" width="2" height="1" fill="#2b0803"/><rect x="18" y="36" width="3" height="1" fill="#2b0803"/><rect x="21" y="36" width="4" height="1" fill="#632106"/><rect x="25" y="36" width="2" height="1" fill="#a6571b"/><rect x="27" y="36" width="2" height="1" fill="#dea65d"/><rect x="29" y="36" width="2" height="1" fill="#fff5db"/><rect x="31" y="36" width="2" height="1" fill="#dea65d"/><rect x="33" y="36" width="2" height="1" fill="#a6571b"/><rect x="35" y="36" width="2" height="1" fill="#632106"/><rect x="37" y="36" width="3" height="1" fill="#2b0803"/><rect x="18" y="37" width="4" height="1" fill="#2b0803"/><rect x="22" y="37" width="3" height="1" fill="#632106"/><rect x="25" y="37" width="2" height="1" fill="#a6571b"/><rect x="27" y="37" width="6" height="1" fill="#dea65d"/><rect x="33" y="37" width="1" height="1" fill="#a6571b"/><rect x="34" y="37" width="3" height="1" fill="#632106"/><rect x="37" y="37" width="3" height="1" fill="#2b0803"/><rect x="44" y="37" width="11" height="1" fill="#52281a"/><rect x="55" y="37" width="1" height="1" fill="#0a0812"/><rect x="18" y="38" width="4" height="1" fill="#2b0803"/><rect x="22" y="38" width="4" height="1" fill="#632106"/><rect x="26" y="38" width="2" height="1" fill="#a6571b"/><rect x="28" y="38" width="3" height="1" fill="#dea65d"/><rect x="31" y="38" width="3" height="1" fill="#a6571b"/><rect x="34" y="38" width="2" height="1" fill="#632106"/><rect x="36" y="38" width="3" height="1" fill="#2b0803"/><rect x="42" y="38" width="3" height="1" fill="#52281a"/><rect x="45" y="38" width="2" height="1" fill="#c79d69"/><rect x="47" y="38" width="2" height="1" fill="#9c6338"/><rect x="49" y="38" width="3" height="1" fill="#6b351e"/><rect x="52" y="38" width="2" height="1" fill="#9c6338"/><rect x="54" y="38" width="1" height="1" fill="#c79d69"/><rect x="55" y="38" width="1" height="1" fill="#0a0812"/><rect x="19" y="39" width="4" height="1" fill="#2b0803"/><rect x="23" y="39" width="3" height="1" fill="#632106"/><rect x="26" y="39" width="7" height="1" fill="#a6571b"/><rect x="33" y="39" width="3" height="1" fill="#632106"/><rect x="36" y="39" width="3" height="1" fill="#2b0803"/><rect x="40" y="39" width="3" height="1" fill="#52281a"/><rect x="43" y="39" width="3" height="1" fill="#c79d69"/><rect x="46" y="39" width="2" height="1" fill="#9c6338"/><rect x="48" y="39" width="1" height="1" fill="#6b351e"/><rect x="49" y="39" width="3" height="1" fill="#381a15"/><rect x="52" y="39" width="1" height="1" fill="#6b351e"/><rect x="53" y="39" width="2" height="1" fill="#9c6338"/><rect x="55" y="39" width="1" height="1" fill="#0a0812"/><rect x="20" y="40" width="4" height="1" fill="#2b0803"/><rect x="24" y="40" width="3" height="1" fill="#632106"/><rect x="27" y="40" width="6" height="1" fill="#a6571b"/><rect x="33" y="40" width="3" height="1" fill="#632106"/><rect x="36" y="40" width="2" height="1" fill="#2b0803"/><rect x="38" y="40" width="3" height="1" fill="#52281a"/><rect x="41" y="40" width="4" height="1" fill="#c79d69"/><rect x="45" y="40" width="2" height="1" fill="#9c6338"/><rect x="47" y="40" width="1" height="1" fill="#6b351e"/><rect x="48" y="40" width="1" height="1" fill="#381a15"/><rect x="49" y="40" width="3" height="1" fill="#211112"/><rect x="52" y="40" width="1" height="1" fill="#381a15"/><rect x="53" y="40" width="1" height="1" fill="#6b351e"/><rect x="54" y="40" width="1" height="1" fill="#9c6338"/><rect x="55" y="40" width="1" height="1" fill="#0a0812"/><rect x="5" y="41" width="13" height="1" fill="#52281a"/><rect x="18" y="41" width="1" height="1" fill="#0a0812"/><rect x="21" y="41" width="4" height="1" fill="#2b0803"/><rect x="25" y="41" width="10" height="1" fill="#632106"/><rect x="35" y="41" width="3" height="1" fill="#2b0803"/><rect x="38" y="41" width="1" height="1" fill="#52281a"/><rect x="39" y="41" width="4" height="1" fill="#c79d69"/><rect x="43" y="41" width="3" height="1" fill="#9c6338"/><rect x="46" y="41" width="1" height="1" fill="#381a15"/><rect x="47" y="41" width="1" height="1" fill="#6b351e"/><rect x="48" y="41" width="1" height="1" fill="#381a15"/><rect x="49" y="41" width="3" height="1" fill="#211112"/><rect x="52" y="41" width="1" height="1" fill="#381a15"/><rect x="53" y="41" width="1" height="1" fill="#6b351e"/><rect x="54" y="41" width="1" height="1" fill="#381a15"/><rect x="55" y="41" width="1" height="1" fill="#0a0812"/><rect x="5" y="42" width="1" height="1" fill="#52281a"/><rect x="6" y="42" width="2" height="1" fill="#9c6338"/><rect x="8" y="42" width="3" height="1" fill="#6b351e"/><rect x="11" y="42" width="2" height="1" fill="#9c6338"/><rect x="13" y="42" width="5" height="1" fill="#c79d69"/><rect x="18" y="42" width="1" height="1" fill="#0a0812"/><rect x="19" y="42" width="3" height="1" fill="#52281a"/><rect x="22" y="42" width="3" height="1" fill="#2b0803"/><rect x="25" y="42" width="10" height="1" fill="#632106"/><rect x="35" y="42" width="3" height="1" fill="#2b0803"/><rect x="38" y="42" width="3" height="1" fill="#c79d69"/><rect x="41" y="42" width="5" height="1" fill="#9c6338"/><rect x="46" y="42" width="1" height="1" fill="#381a15"/><rect x="47" y="42" width="1" height="1" fill="#6b351e"/><rect x="48" y="42" width="1" height="1" fill="#381a15"/><rect x="49" y="42" width="3" height="1" fill="#211112"/><rect x="52" y="42" width="1" height="1" fill="#381a15"/><rect x="53" y="42" width="1" height="1" fill="#6b351e"/><rect x="54" y="42" width="1" height="1" fill="#381a15"/><rect x="55" y="42" width="1" height="1" fill="#0a0812"/><rect x="56" y="42" width="3" height="1" fill="#52281a"/><rect x="59" y="42" width="1" height="1" fill="#0a0812"/><rect x="5" y="43" width="1" height="1" fill="#52281a"/><rect x="6" y="43" width="1" height="1" fill="#9c6338"/><rect x="7" y="43" width="1" height="1" fill="#6b351e"/><rect x="8" y="43" width="3" height="1" fill="#381a15"/><rect x="11" y="43" width="1" height="1" fill="#6b351e"/><rect x="12" y="43" width="2" height="1" fill="#9c6338"/><rect x="14" y="43" width="9" height="1" fill="#c79d69"/><rect x="23" y="43" width="14" height="1" fill="#2b0803"/><rect x="37" y="43" width="2" height="1" fill="#c79d69"/><rect x="39" y="43" width="7" height="1" fill="#9c6338"/><rect x="46" y="43" width="2" height="1" fill="#381a15"/><rect x="48" y="43" width="1" height="1" fill="#6b351e"/><rect x="49" y="43" width="3" height="1" fill="#381a15"/><rect x="52" y="43" width="1" height="1" fill="#6b351e"/><rect x="53" y="43" width="2" height="1" fill="#381a15"/><rect x="55" y="43" width="1" height="1" fill="#0a0812"/><rect x="56" y="43" width="2" height="1" fill="#9c6338"/><rect x="58" y="43" width="1" height="1" fill="#c79d69"/><rect x="59" y="43" width="1" height="1" fill="#0a0812"/><rect x="5" y="44" width="1" height="1" fill="#52281a"/><rect x="6" y="44" width="1" height="1" fill="#6b351e"/><rect x="7" y="44" width="1" height="1" fill="#381a15"/><rect x="8" y="44" width="3" height="1" fill="#211112"/><rect x="11" y="44" width="1" height="1" fill="#381a15"/><rect x="12" y="44" width="1" height="1" fill="#6b351e"/><rect x="13" y="44" width="1" height="1" fill="#9c6338"/><rect x="14" y="44" width="4" height="1" fill="#6b351e"/><rect x="18" y="44" width="6" height="1" fill="#c79d69"/><rect x="24" y="44" width="13" height="1" fill="#2b0803"/><rect x="37" y="44" width="1" height="1" fill="#2b0e07"/><rect x="38" y="44" width="8" height="1" fill="#9c6338"/><rect x="46" y="44" width="3" height="1" fill="#381a15"/><rect x="49" y="44" width="3" height="1" fill="#6b351e"/><rect x="52" y="44" width="2" height="1" fill="#381a15"/><rect x="54" y="44" width="1" height="1" fill="#211112"/><rect x="55" y="44" width="1" height="1" fill="#0a0812"/><rect x="56" y="44" width="1" height="1" fill="#6b351e"/><rect x="57" y="44" width="2" height="1" fill="#9c6338"/><rect x="59" y="44" width="1" height="1" fill="#0a0812"/><rect x="5" y="45" width="1" height="1" fill="#52281a"/><rect x="6" y="45" width="1" height="1" fill="#6b351e"/><rect x="7" y="45" width="1" height="1" fill="#381a15"/><rect x="8" y="45" width="3" height="1" fill="#211112"/><rect x="11" y="45" width="1" height="1" fill="#381a15"/><rect x="12" y="45" width="1" height="1" fill="#6b351e"/><rect x="13" y="45" width="1" height="1" fill="#381a15"/><rect x="14" y="45" width="9" height="1" fill="#6b351e"/><rect x="23" y="45" width="2" height="1" fill="#dead67"/><rect x="25" y="45" width="7" height="1" fill="#2b0803"/><rect x="32" y="45" width="2" height="1" fill="#c79d69"/><rect x="34" y="45" width="2" height="1" fill="#9c6338"/><rect x="36" y="45" width="1" height="1" fill="#a66126"/><rect x="37" y="45" width="4" height="1" fill="#9c6338"/><rect x="41" y="45" width="2" height="1" fill="#a66126"/><rect x="43" y="45" width="10" height="1" fill="#381a15"/><rect x="53" y="45" width="2" height="1" fill="#6b351e"/><rect x="55" y="45" width="1" height="1" fill="#0a0812"/><rect x="56" y="45" width="1" height="1" fill="#381a15"/><rect x="57" y="45" width="1" height="1" fill="#6b351e"/><rect x="58" y="45" width="1" height="1" fill="#9c6338"/><rect x="59" y="45" width="1" height="1" fill="#0a0812"/><rect x="5" y="46" width="1" height="1" fill="#52281a"/><rect x="6" y="46" width="1" height="1" fill="#6b351e"/><rect x="7" y="46" width="1" height="1" fill="#381a15"/><rect x="8" y="46" width="3" height="1" fill="#211112"/><rect x="11" y="46" width="1" height="1" fill="#381a15"/><rect x="12" y="46" width="1" height="1" fill="#6b351e"/><rect x="13" y="46" width="6" height="1" fill="#381a15"/><rect x="19" y="46" width="2" height="1" fill="#6b351e"/><rect x="21" y="46" width="2" height="1" fill="#2b0e07"/><rect x="23" y="46" width="1" height="1" fill="#6b351e"/><rect x="24" y="46" width="1" height="1" fill="#52281a"/><rect x="25" y="46" width="1" height="1" fill="#2b0e07"/><rect x="26" y="46" width="1" height="1" fill="#52281a"/><rect x="27" y="46" width="5" height="1" fill="#c79d69"/><rect x="32" y="46" width="3" height="1" fill="#a66126"/><rect x="35" y="46" width="2" height="1" fill="#9c6338"/><rect x="37" y="46" width="9" height="1" fill="#381a15"/><rect x="46" y="46" width="4" height="1" fill="#211112"/><rect x="50" y="46" width="2" height="1" fill="#6b351e"/><rect x="52" y="46" width="4" height="1" fill="#0a0812"/><rect x="56" y="46" width="1" height="1" fill="#381a15"/><rect x="57" y="46" width="1" height="1" fill="#6b351e"/><rect x="58" y="46" width="1" height="1" fill="#381a15"/><rect x="59" y="46" width="1" height="1" fill="#0a0812"/><rect x="5" y="47" width="1" height="1" fill="#52281a"/><rect x="6" y="47" width="1" height="1" fill="#381a15"/><rect x="7" y="47" width="1" height="1" fill="#6b351e"/><rect x="8" y="47" width="3" height="1" fill="#381a15"/><rect x="11" y="47" width="1" height="1" fill="#6b351e"/><rect x="12" y="47" width="8" height="1" fill="#381a15"/><rect x="20" y="47" width="2" height="1" fill="#6b351e"/><rect x="22" y="47" width="2" height="1" fill="#52281a"/><rect x="24" y="47" width="2" height="1" fill="#a66126"/><rect x="26" y="47" width="4" height="1" fill="#c79d69"/><rect x="30" y="47" width="8" height="1" fill="#9c6338"/><rect x="38" y="47" width="2" height="1" fill="#2b0e07"/><rect x="40" y="47" width="4" height="1" fill="#381a15"/><rect x="44" y="47" width="4" height="1" fill="#211112"/><rect x="48" y="47" width="2" height="1" fill="#6b351e"/><rect x="50" y="47" width="3" height="1" fill="#0a0812"/><rect x="53" y="47" width="3" height="1" fill="#211112"/><rect x="56" y="47" width="1" height="1" fill="#381a15"/><rect x="57" y="47" width="1" height="1" fill="#6b351e"/><rect x="58" y="47" width="1" height="1" fill="#381a15"/><rect x="59" y="47" width="1" height="1" fill="#0a0812"/><rect x="5" y="48" width="1" height="1" fill="#52281a"/><rect x="6" y="48" width="2" height="1" fill="#381a15"/><rect x="8" y="48" width="3" height="1" fill="#6b351e"/><rect x="11" y="48" width="2" height="1" fill="#381a15"/><rect x="13" y="48" width="3" height="1" fill="#211112"/><rect x="16" y="48" width="4" height="1" fill="#381a15"/><rect x="20" y="48" width="1" height="1" fill="#a66126"/><rect x="21" y="48" width="2" height="1" fill="#52281a"/><rect x="23" y="48" width="1" height="1" fill="#381a15"/><rect x="24" y="48" width="3" height="1" fill="#c79d69"/><rect x="27" y="48" width="3" height="1" fill="#9c6338"/><rect x="30" y="48" width="2" height="1" fill="#dead67"/><rect x="32" y="48" width="5" height="1" fill="#9c6338"/><rect x="37" y="48" width="1" height="1" fill="#381a15"/><rect x="38" y="48" width="2" height="1" fill="#dead67"/><rect x="40" y="48" width="4" height="1" fill="#381a15"/><rect x="44" y="48" width="1" height="1" fill="#dead67"/><rect x="45" y="48" width="1" height="1" fill="#211112"/><rect x="46" y="48" width="2" height="1" fill="#6b351e"/><rect x="48" y="48" width="4" height="1" fill="#0a0812"/><rect x="52" y="48" width="1" height="1" fill="#6b351e"/><rect x="53" y="48" width="3" height="1" fill="#381a15"/><rect x="56" y="48" width="1" height="1" fill="#6b351e"/><rect x="57" y="48" width="2" height="1" fill="#381a15"/><rect x="59" y="48" width="1" height="1" fill="#0a0812"/><rect x="5" y="49" width="1" height="1" fill="#52281a"/><rect x="6" y="49" width="1" height="1" fill="#6b351e"/><rect x="7" y="49" width="5" height="1" fill="#381a15"/><rect x="12" y="49" width="5" height="1" fill="#211112"/><rect x="17" y="49" width="4" height="1" fill="#52281a"/><rect x="21" y="49" width="1" height="1" fill="#c79d69"/><rect x="22" y="49" width="2" height="1" fill="#a66126"/><rect x="24" y="49" width="1" height="1" fill="#c79d69"/><rect x="25" y="49" width="1" height="1" fill="#9c6338"/><rect x="26" y="49" width="2" height="1" fill="#a66126"/><rect x="28" y="49" width="6" height="1" fill="#9c6338"/><rect x="34" y="49" width="5" height="1" fill="#381a15"/><rect x="39" y="49" width="4" height="1" fill="#211112"/><rect x="43" y="49" width="3" height="1" fill="#6b351e"/><rect x="46" y="49" width="3" height="1" fill="#0a0812"/><rect x="49" y="49" width="1" height="1" fill="#c79d69"/><rect x="50" y="49" width="1" height="1" fill="#0a0812"/><rect x="51" y="49" width="4" height="1" fill="#52281a"/><rect x="55" y="49" width="1" height="1" fill="#0a0812"/><rect x="56" y="49" width="2" height="1" fill="#381a15"/><rect x="58" y="49" width="1" height="1" fill="#211112"/><rect x="59" y="49" width="1" height="1" fill="#0a0812"/><rect x="5" y="50" width="6" height="1" fill="#0a0812"/><rect x="11" y="50" width="4" height="1" fill="#6b351e"/><rect x="15" y="50" width="3" height="1" fill="#52281a"/><rect x="18" y="50" width="5" height="1" fill="#c79d69"/><rect x="23" y="50" width="5" height="1" fill="#9c6338"/><rect x="28" y="50" width="9" height="1" fill="#381a15"/><rect x="37" y="50" width="4" height="1" fill="#211112"/><rect x="41" y="50" width="2" height="1" fill="#6b351e"/><rect x="43" y="50" width="4" height="1" fill="#0a0812"/><rect x="47" y="50" width="8" height="1" fill="#c79d69"/><rect x="55" y="50" width="1" height="1" fill="#0a0812"/><rect x="56" y="50" width="3" height="1" fill="#52281a"/><rect x="59" y="50" width="1" height="1" fill="#0a0812"/><rect x="6" y="51" width="1" height="1" fill="#52281a"/><rect x="7" y="51" width="3" height="1" fill="#381a15"/><rect x="10" y="51" width="3" height="1" fill="#0a0812"/><rect x="13" y="51" width="3" height="1" fill="#52281a"/><rect x="16" y="51" width="5" height="1" fill="#c79d69"/><rect x="21" y="51" width="8" height="1" fill="#9c6338"/><rect x="29" y="51" width="5" height="1" fill="#381a15"/><rect x="34" y="51" width="5" height="1" fill="#211112"/><rect x="39" y="51" width="2" height="1" fill="#6b351e"/><rect x="41" y="51" width="3" height="1" fill="#0a0812"/><rect x="44" y="51" width="6" height="1" fill="#6b351e"/><rect x="50" y="51" width="7" height="1" fill="#c79d69"/><rect x="57" y="51" width="2" height="1" fill="#381a15"/><rect x="59" y="51" width="2" height="1" fill="#0a0812"/><rect x="6" y="52" width="1" height="1" fill="#52281a"/><rect x="7" y="52" width="4" height="1" fill="#381a15"/><rect x="11" y="52" width="3" height="1" fill="#52281a"/><rect x="14" y="52" width="4" height="1" fill="#c79d69"/><rect x="18" y="52" width="10" height="1" fill="#9c6338"/><rect x="28" y="52" width="4" height="1" fill="#381a15"/><rect x="32" y="52" width="5" height="1" fill="#211112"/><rect x="37" y="52" width="2" height="1" fill="#6b351e"/><rect x="39" y="52" width="3" height="1" fill="#0a0812"/><rect x="42" y="52" width="4" height="1" fill="#381a15"/><rect x="46" y="52" width="7" height="1" fill="#6b351e"/><rect x="53" y="52" width="4" height="1" fill="#381a15"/><rect x="57" y="52" width="3" height="1" fill="#c79d69"/><rect x="60" y="52" width="1" height="1" fill="#0a0812"/><rect x="6" y="53" width="1" height="1" fill="#52281a"/><rect x="7" y="53" width="3" height="1" fill="#381a15"/><rect x="10" y="53" width="2" height="1" fill="#52281a"/><rect x="12" y="53" width="4" height="1" fill="#c79d69"/><rect x="16" y="53" width="9" height="1" fill="#9c6338"/><rect x="25" y="53" width="5" height="1" fill="#381a15"/><rect x="30" y="53" width="4" height="1" fill="#211112"/><rect x="34" y="53" width="3" height="1" fill="#6b351e"/><rect x="37" y="53" width="3" height="1" fill="#0a0812"/><rect x="40" y="53" width="8" height="1" fill="#381a15"/><rect x="48" y="53" width="3" height="1" fill="#6b351e"/><rect x="51" y="53" width="2" height="1" fill="#381a15"/><rect x="53" y="53" width="6" height="1" fill="#6b351e"/><rect x="59" y="53" width="1" height="1" fill="#c79d69"/><rect x="60" y="53" width="1" height="1" fill="#0a0812"/><rect x="6" y="54" width="1" height="1" fill="#52281a"/><rect x="7" y="54" width="3" height="1" fill="#211112"/><rect x="10" y="54" width="1" height="1" fill="#52281a"/><rect x="11" y="54" width="3" height="1" fill="#c79d69"/><rect x="14" y="54" width="9" height="1" fill="#9c6338"/><rect x="23" y="54" width="5" height="1" fill="#381a15"/><rect x="28" y="54" width="4" height="1" fill="#211112"/><rect x="32" y="54" width="2" height="1" fill="#6b351e"/><rect x="34" y="54" width="4" height="1" fill="#0a0812"/><rect x="38" y="54" width="5" height="1" fill="#211112"/><rect x="43" y="54" width="14" height="1" fill="#381a15"/><rect x="57" y="54" width="3" height="1" fill="#6b351e"/><rect x="60" y="54" width="1" height="1" fill="#0a0812"/><rect x="6" y="55" width="1" height="1" fill="#52281a"/><rect x="7" y="55" width="3" height="1" fill="#211112"/><rect x="10" y="55" width="1" height="1" fill="#52281a"/><rect x="11" y="55" width="1" height="1" fill="#c79d69"/><rect x="12" y="55" width="5" height="1" fill="#381a15"/><rect x="17" y="55" width="4" height="1" fill="#9c6338"/><rect x="21" y="55" width="4" height="1" fill="#381a15"/><rect x="25" y="55" width="5" height="1" fill="#211112"/><rect x="30" y="55" width="2" height="1" fill="#6b351e"/><rect x="32" y="55" width="3" height="1" fill="#0a0812"/><rect x="35" y="55" width="3" height="1" fill="#381a15"/><rect x="38" y="55" width="1" height="1" fill="#6b351e"/><rect x="39" y="55" width="7" height="1" fill="#211112"/><rect x="46" y="55" width="14" height="1" fill="#381a15"/><rect x="60" y="55" width="1" height="1" fill="#0a0812"/><rect x="6" y="56" width="1" height="1" fill="#52281a"/><rect x="7" y="56" width="3" height="1" fill="#6b351e"/><rect x="10" y="56" width="1" height="1" fill="#52281a"/><rect x="11" y="56" width="6" height="1" fill="#9c6338"/><rect x="17" y="56" width="6" height="1" fill="#381a15"/><rect x="23" y="56" width="5" height="1" fill="#211112"/><rect x="28" y="56" width="2" height="1" fill="#381a15"/><rect x="30" y="56" width="9" height="1" fill="#0a0812"/><rect x="39" y="56" width="4" height="1" fill="#6b351e"/><rect x="43" y="56" width="1" height="1" fill="#211112"/><rect x="44" y="56" width="2" height="1" fill="#381a15"/><rect x="46" y="56" width="6" height="1" fill="#211112"/><rect x="52" y="56" width="8" height="1" fill="#381a15"/><rect x="60" y="56" width="1" height="1" fill="#0a0812"/><rect x="6" y="57" width="4" height="1" fill="#0a0812"/><rect x="10" y="57" width="1" height="1" fill="#52281a"/><rect x="11" y="57" width="10" height="1" fill="#381a15"/><rect x="21" y="57" width="4" height="1" fill="#211112"/><rect x="25" y="57" width="2" height="1" fill="#6b351e"/><rect x="27" y="57" width="1" height="1" fill="#381a15"/><rect x="28" y="57" width="3" height="1" fill="#0a0812"/><rect x="31" y="57" width="4" height="1" fill="#1f1d26"/><rect x="35" y="57" width="2" height="1" fill="#616591"/><rect x="37" y="57" width="6" height="1" fill="#0a0812"/><rect x="43" y="57" width="5" height="1" fill="#6b351e"/><rect x="48" y="57" width="12" height="1" fill="#211112"/><rect x="60" y="57" width="1" height="1" fill="#0a0812"/><rect x="10" y="58" width="1" height="1" fill="#52281a"/><rect x="11" y="58" width="8" height="1" fill="#381a15"/><rect x="19" y="58" width="4" height="1" fill="#211112"/><rect x="23" y="58" width="2" height="1" fill="#6b351e"/><rect x="25" y="58" width="4" height="1" fill="#0a0812"/><rect x="29" y="58" width="7" height="1" fill="#444369"/><rect x="36" y="58" width="2" height="1" fill="#616591"/><rect x="38" y="58" width="2" height="1" fill="#0a0812"/><rect x="40" y="58" width="2" height="1" fill="#444369"/><rect x="42" y="58" width="6" height="1" fill="#0a0812"/><rect x="48" y="58" width="4" height="1" fill="#6b351e"/><rect x="52" y="58" width="8" height="1" fill="#211112"/><rect x="60" y="58" width="1" height="1" fill="#0a0812"/><rect x="10" y="59" width="1" height="1" fill="#52281a"/><rect x="11" y="59" width="10" height="1" fill="#211112"/><rect x="21" y="59" width="2" height="1" fill="#6b351e"/><rect x="23" y="59" width="29" height="1" fill="#0a0812"/><rect x="52" y="59" width="8" height="1" fill="#6b351e"/><rect x="60" y="59" width="1" height="1" fill="#0a0812"/><rect x="10" y="60" width="1" height="1" fill="#52281a"/><rect x="11" y="60" width="8" height="1" fill="#211112"/><rect x="19" y="60" width="2" height="1" fill="#6b351e"/><rect x="21" y="60" width="3" height="1" fill="#0a0812"/><rect x="51" y="60" width="10" height="1" fill="#0a0812"/><rect x="10" y="61" width="1" height="1" fill="#52281a"/><rect x="11" y="61" width="8" height="1" fill="#6b351e"/><rect x="19" y="61" width="3" height="1" fill="#0a0812"/><rect x="10" y="62" width="10" height="1" fill="#0a0812"/></svg>